<?xml version="1.0" standalone="no"?>
<!DOCTYPE svg PUBLIC "-//W3C//DTD SVG 20010904//EN"
 "http://www.w3.org/TR/2001/REC-SVG-20010904/DTD/svg10.dtd">
<svg version="1.0" xmlns="http://www.w3.org/2000/svg"
 width="260.000000pt" height="260.000000pt" viewBox="0 0 260.000000 260.000000"
 preserveAspectRatio="xMidYMid meet">
<metadata>
Created by potrace 1.11, written by Peter Selinger 2001-2013
</metadata>
<g transform="translate(0.000000,260.000000) scale(0.100000,-0.100000)"
fill="#000000" stroke="none">
<path d="M520 1511 l0 -50 -52 -3 -53 -3 -3 -102 -3 -103 -49 0 -50 0 0 -155
0 -155 -50 0 -50 0 0 -154 0 -155 -52 -3 -53 -3 -3 -312 -2 -313 55 0 55 0 0
50 0 49 103 3 102 3 3 53 3 52 50 0 49 0 0 50 0 50 105 0 105 0 0 55 0 55 105
0 105 0 0 50 0 50 50 0 50 0 0 210 0 210 50 0 50 0 0 50 0 50 55 0 55 0 0 55
0 55 50 0 50 0 0 -55 0 -55 55 0 55 0 0 -50 0 -50 50 0 50 0 0 -210 0 -210 50
0 50 0 0 -50 0 -50 105 0 105 0 0 -55 0 -55 105 0 105 0 0 -50 0 -50 49 0 50
0 3 -52 3 -53 103 -3 102 -3 0 -49 0 -50 55 0 55 0 -2 313 -3 312 -53 3 -52 3
0 155 0 154 -50 0 -50 0 0 155 0 155 -50 0 -49 0 -3 103 -3 102 -52 3 -53 3 0
50 0 49 -105 0 -105 0 0 -50 0 -50 -50 0 -50 0 0 -105 0 -105 -470 0 -470 0 0
105 0 105 -50 0 -50 0 0 50 0 50 -105 0 -105 0 0 -49z m418 -783 l-3 -103
-102 -3 -103 -3 0 106 0 105 105 0 106 0 -3 -102z m1040 0 l-3 -103 -102 -3
-103 -3 0 106 0 105 105 0 106 0 -3 -102z"/>
</g>
</svg>
