<?xml version="1.0" encoding="UTF-8" standalone="no"?>
<svg width="122px" height="122px" viewBox="0 0 122 122" version="1.1" xmlns="http://www.w3.org/2000/svg" xmlns:xlink="http://www.w3.org/1999/xlink">
    <!-- Generator: Sketch 40 (33762) - http://www.bohemiancoding.com/sketch -->
    <title>pemory</title>
    <desc>Created with Sketch.</desc>
    <defs>
        <filter x="-50%" y="-50%" width="200%" height="200%" filterUnits="objectBoundingBox" id="filter-1">
            <feOffset dx="0" dy="2" in="SourceAlpha" result="shadowOffsetOuter1"></feOffset>
            <feGaussianBlur stdDeviation="1.5" in="shadowOffsetOuter1" result="shadowBlurOuter1"></feGaussianBlur>
            <feColorMatrix values="0 0 0 0 0   0 0 0 0 0   0 0 0 0 0  0 0 0 0.06 0" type="matrix" in="shadowBlurOuter1" result="shadowMatrixOuter1"></feColorMatrix>
            <feMerge>
                <feMergeNode in="shadowMatrixOuter1"></feMergeNode>
                <feMergeNode in="SourceGraphic"></feMergeNode>
            </feMerge>
        </filter>
        <path d="M65.1358333,0 C75.175,0 80.1933333,0 85.5975,1.70833333 C91.4975,3.85583333 96.1441667,8.5025 98.2916667,14.4025 C100,19.8058333 100,24.8258333 100,34.8641667 L100,65.1358333 C100,75.175 100,80.1933333 98.2916667,85.5975 C96.1441667,91.4975 91.4975,96.1441667 85.5975,98.2908333 C80.1933333,100 75.175,100 65.1358333,100 L34.8641667,100 C24.825,100 19.8058333,100 14.4025,98.2908333 C8.5025,96.1441667 3.85583333,91.4975 1.70833333,85.5975 C0,80.1933333 0,75.175 0,65.1358333 L0,34.8641667 C0,24.8258333 0,19.8058333 1.70833333,14.4025 C3.85583333,8.5025 8.5025,3.85583333 14.4025,1.70833333 C19.8058333,0 24.825,0 34.8641667,0 L65.1358333,0 Z" id="path-2"></path>
        <polygon id="path-4" points="99.513198 49.9896717 99.513198 99.4949495 0 99.4949495 0 49.9896717 0 0.484393939 99.513198 0.484393939 99.513198 49.9896717"></polygon>
    </defs>
    <g id="Page-1" stroke="none" stroke-width="1" fill="none" fill-rule="evenodd">
        <g id="pemory">
            <g id="Group-2" filter="url(#filter-1)" transform="translate(15.000000, 15.000000)">
                <mask id="mask-3" fill="white">
                    <use xlink:href="#path-2"></use>
                </mask>
                <use id="Icon-Shape" fill="#FFFFFF" xlink:href="#path-2"></use>
                <g id="Page-1" mask="url(#mask-3)">
                    <g id="Group-3" transform="translate(0.000000, 0.020707)">
                        <mask id="mask-5" fill="white">
                            <use xlink:href="#path-4"></use>
                        </mask>
                        <g id="Clip-2"></g>
                        <path d="M99.513198,31.6061111 C99.513198,30.6990404 99.5076142,29.4682323 99.4939086,27.9682323 C99.4791878,26.3879293 99.4695431,25.7444949 99.4548223,24.9965152 C99.4121827,22.7758081 99.2680203,20.5278283 98.8888325,18.5202525 C98.4746193,16.3308586 97.9142132,14.3414646 96.9010152,12.3520707 C95.8720812,10.3323737 94.4619289,8.58742424 92.9340102,7.03035354 C91.3690355,5.51015152 89.6152284,4.10712121 87.5852792,3.08388889 C85.5857868,2.07530303 83.586802,1.51772727 81.3857868,1.10611111 C79.3680203,0.728333333 77.1086294,0.58489899 74.8766497,0.542474747 C74.1248731,0.528333333 73.4781726,0.518232323 71.8898477,0.503585859 C70.3822335,0.489949495 69.1451777,0.484393939 68.2335025,0.484393939 L31.2796954,0.484393939 C30.3680203,0.484393939 29.1309645,0.489949495 27.6233503,0.503585859 C26.0350254,0.518232323 25.3883249,0.528333333 24.6365482,0.542474747 C22.4045685,0.58489899 20.1451777,0.728333333 18.1274112,1.10611111 C15.9263959,1.51772727 13.9274112,2.07530303 11.9279188,3.08388889 C9.89796954,4.10712121 8.14416244,5.51015152 6.57918782,7.03035354 C5.05126904,8.58742424 3.64111675,10.3323737 2.61218274,12.3520707 C1.59898477,14.3414646 1.03857868,16.3308586 0.624365482,18.5202525 C0.245177665,20.5278283 0.101015228,22.7758081 0.0583756345,24.9965152 C0.0441624365,25.7444949 0.0340101523,26.3879293 0.0192893401,27.9682323 C0.00558375635,29.4682323 0,30.6990404 0,31.6061111 L0,68.3732828 C0,69.2803535 0.00558375635,70.5111616 0.0192893401,72.0111616 C0.0340101523,73.5914646 0.0441624365,74.234899 0.0583756345,74.9828788 C0.101015228,77.2035859 0.245177665,79.4515657 0.624365482,81.4591414 C1.03857868,83.6485354 1.59898477,85.6374242 2.61218274,87.6273232 C3.64111675,89.6470202 5.05126904,91.3919697 6.57918782,92.9490404 C8.14416244,94.4692424 9.89796954,95.8722727 11.9279188,96.8955051 C13.9274112,97.9040909 15.9263959,98.4616667 18.1274112,98.8732828 C20.1451777,99.2510606 22.4045685,99.3944949 24.6365482,99.4374242 C25.3883249,99.4510606 26.0350254,99.4611616 27.6233503,99.4758081 C29.1309645,99.4894444 30.3680203,99.495 31.2796954,99.495 L68.2335025,99.495 C69.1451777,99.495 70.3822335,99.4894444 71.8898477,99.4758081 C73.4781726,99.4611616 74.1248731,99.4510606 74.8766497,99.4374242 C77.1086294,99.3944949 79.3680203,99.2510606 81.3857868,98.8732828 C83.586802,98.4616667 85.5857868,97.9040909 87.5852792,96.8955051 C89.6152284,95.8722727 91.3690355,94.4692424 92.9340102,92.9490404 C94.4619289,91.3919697 95.8720812,89.6470202 96.9010152,87.6273232 C97.9142132,85.6374242 98.4746193,83.6485354 98.8888325,81.4591414 C99.2680203,79.4515657 99.4121827,77.2035859 99.4548223,74.9828788 C99.4695431,74.234899 99.4791878,73.5914646 99.4939086,72.0111616 C99.5076142,70.5111616 99.513198,69.2803535 99.513198,68.3732828 L99.513198,31.6061111 Z" id="Fill-1" fill="#FFFFFF" mask="url(#mask-5)"></path>
                    </g>
                    <path d="M91.5420812,49.730202 C91.5420812,71.5105051 73.7958883,89.1670707 51.9050254,89.1670707 C30.0141624,89.1670707 12.2679695,71.5105051 12.2679695,49.730202 C12.2679695,27.949899 30.0141624,10.2933333 51.9050254,10.2933333 C73.7958883,10.2933333 91.5420812,27.949899 91.5420812,49.730202" id="Fill-4" fill="#6DD0F8"></path>
                    <path d="M82.9619797,38.0921717 C82.8315228,37.6340909 82.4604569,37.3244949 82.0929442,37.0280303 C81.8030964,36.7941919 81.5137563,36.5603535 81.2244162,36.3265152 C80.1949746,35.4967172 79.1650254,34.6659091 78.1360914,33.8356061 C76.8579188,32.8042929 75.5797462,31.7739899 74.3020812,30.7426768 C73.049797,29.7325758 71.7975127,28.7224747 70.5447208,27.7123737 C69.5929442,26.9436869 68.6401523,26.175 67.6873604,25.4068182 C67.3086802,25.1012626 66.9305076,24.795202 66.5518274,24.4906566 C66.5518274,24.4906566 53.949797,24.5244949 54.0127411,24.5406566 C52.8574112,24.3967172 51.6832995,24.3138889 50.4888832,24.3138889 C49.1579188,24.3138889 47.8508122,24.4123737 46.5685787,24.5906566 C46.6939594,24.5583333 34.2173096,24.4906566 34.2173096,24.4906566 C33.8386294,24.795202 33.4599492,25.1012626 33.081269,25.4068182 C32.1294924,26.175 31.1767005,26.9436869 30.2239086,27.7123737 C29.4518274,28.334596 28.6807614,28.9573232 27.9086802,29.5795455 C27.4279695,29.9674242 26.9482741,30.354798 26.4675635,30.7426768 C25.1893909,31.7739899 23.9112183,32.8042929 22.6335533,33.8356061 C21.6036041,34.6659091 20.5741624,35.4967172 19.5442132,36.3265152 C19.2558883,36.5603535 18.9650254,36.7941919 18.6756853,37.0280303 C18.3086802,37.3244949 17.9381218,37.6340909 17.8071574,38.0921717 C17.7000508,38.465404 17.6315228,38.8497475 17.6061421,39.2366162 C17.536599,40.3204545 17.8548731,41.3941919 18.6391371,42.1734848 C20.5041117,44.0295455 23.0269543,46.3219697 23.0269543,46.3219697 C22.6294924,48.2194444 22.4025888,50.2118687 22.4025888,52.2583333 C22.4025888,56.2492424 23.2492893,60.0406566 24.7640102,63.4744949 C26.5371066,67.525 29.2503046,71.0527778 32.6193401,73.8174242 C33.3193401,74.3906566 34.0355838,74.9255051 34.7782234,75.4244949 C35.1421827,75.6684343 35.4848223,75.8856061 35.8315228,76.0967172 C35.887868,76.1315657 35.9447208,76.1664141 36.0020812,76.2007576 C36.7122335,76.6265152 37.443198,77.0224747 38.1924365,77.3856061 C38.2959898,77.4361111 38.4000508,77.4840909 38.5041117,77.5330808 C38.7756853,77.6603535 39.0487817,77.7830808 39.3249239,77.9022727 C39.4411675,77.9522727 39.5579188,78.0042929 39.6751777,78.0527778 C40.0264467,78.1987374 40.3807614,78.3386364 40.7391371,78.4704545 C40.8807614,78.5224747 41.0244162,78.5699495 41.1675635,78.6199495 C41.3975127,78.7002525 41.6284772,78.7790404 41.8614721,78.8532828 C42.0467513,78.9128788 42.2325381,78.9704545 42.4193401,79.0255051 C42.614264,79.0835859 42.8112183,79.1381313 43.007665,79.1921717 C43.3761929,79.2936869 43.7487817,79.3861111 44.123401,79.4724747 C44.2772081,79.5078283 44.4294924,79.5462121 44.5843147,79.5785354 C44.8325381,79.6310606 45.0832995,79.6780303 45.3345685,79.7244949 C45.4629949,79.7482323 45.5914213,79.7714646 45.7208629,79.7931818 C45.9909137,79.8396465 46.2619797,79.8830808 46.5345685,79.9214646 C47.2736548,80.0209596 47.9127411,80.0856061 48.5574112,80.1295455 C48.9396447,80.155303 49.2711168,80.1699495 49.6046193,80.1800505 C49.9096954,80.1896465 50.1980203,80.2022727 50.4888832,80.2022727 C66.0005584,80.2022727 78.5751777,67.6911616 78.5751777,52.2583333 C78.5751777,50.1689394 78.3371066,48.1361111 77.9005584,46.1780303 C78.4736548,45.6542929 80.5391371,43.7573232 82.1305076,42.1734848 C82.9137563,41.3941919 83.2330457,40.3204545 83.1624873,39.2366162 C83.1376142,38.8497475 83.0680711,38.465404 82.9619797,38.0921717 Z" id="Fill-6" fill="#FBF9F6"></path>
                    <path d="M78.4571328,52.3992398 C78.4571328,67.6704305 65.8443985,80.0505051 50.2845685,80.0505051 C34.7257569,80.0505051 22.1120043,67.6704305 22.1120043,52.3992398 C22.1120043,37.1275493 34.7257569,24.7474747 50.2845685,24.7474747 C65.8443985,24.7474747 78.4571328,37.1275493 78.4571328,52.3992398" id="Fill-8" fill="#FBF9F6"></path>
                    <g id="Group-11" transform="translate(17.258883, 24.191870)">
                        <path d="M36.7846003,0.343096344 L49.6600222,0.343096344 C50.0431215,0.648218613 50.4251937,0.953846051 50.8088065,1.25947349 C51.7727171,2.02783602 52.7361142,2.79670373 53.6995113,3.56557143 C54.9669228,4.57591007 56.2338208,5.58624871 57.5007187,6.59658735 C58.7932936,7.6281431 60.086382,8.65868851 61.3794704,9.69024426 C62.4204117,10.5207426 63.4623801,11.3517461 64.5038349,12.1822445 C64.7965515,12.4156327 65.0892681,12.6495261 65.3824983,12.8834195 C65.7542997,13.1799539 66.1296959,13.4896227 66.2616751,13.9483164 C66.3690046,14.3211314 66.4393592,14.7060704 66.4645226,15.092525 C66.5359044,16.1771235 66.212889,17.2511135 65.4205001,18.0305897 C63.5337619,19.887087 60.980965,22.1800505 60.980965,22.1800505 C60.8936636,22.0881097 60.8084163,21.9971792 60.7211148,21.9067539 C60.4484262,21.6193126 60.1767647,21.3323764 59.9045896,21.0459454 C59.4783532,20.597355 59.0531438,20.1482595 58.6258803,19.699164 C58.0794759,19.1242813 57.5325581,18.5478831 56.9861538,17.9714849 C56.3503939,17.3026407 55.7151475,16.6337965 55.0804147,15.9649524 C54.3902197,15.2380137 53.6995113,14.5115802 53.0093164,13.7841364 C52.2960122,13.0334548 51.5827081,12.2827732 50.8709446,11.5315864 C50.1684248,10.7920185 49.4653914,10.0529558 48.7633851,9.31288278 C48.104516,8.61827496 47.4446198,7.92417232 46.7857507,7.23006967 C46.2018581,6.61527861 45.6189926,6.00099272 45.0351,5.38670683 C44.5611045,4.8865892 44.0865955,4.38748191 43.6120865,3.88786946 C43.2788004,3.53677678 42.9460279,3.18669444 42.6132553,2.8366121 C42.5100342,2.72749553 42.4073266,2.61888413 42.3041055,2.51027272 C41.9590081,2.14604564 41.4377671,1.94397792 40.9843131,1.74241536 C39.6362762,1.14227421 38.2178845,0.69519936 36.7846003,0.343096344" id="Fill-16" fill="#DBDBDB"></path>
                        <path d="M29.8237482,0.343096344 L16.9483263,0.343096344 C16.565227,0.648218613 16.1821278,0.953846051 15.7985149,1.25947349 C14.8356314,2.02783602 13.8717208,2.79670373 12.9083237,3.56557143 C11.6414257,4.57591007 10.3745278,5.58624871 9.10762979,6.59658735 C7.81505492,7.6281431 6.52196651,8.65868851 5.22887811,9.69024426 C4.18690973,10.5207426 3.14596843,11.3517461 2.10348651,12.1822445 C1.81179699,12.4156327 1.51805332,12.6495261 1.22533672,12.8834195 C0.854048828,13.1799539 0.47865263,13.4896227 0.346673393,13.9483164 C0.238316898,14.3211314 0.168989283,14.7060704 0.142798851,15.092525 C0.0724441598,16.1771235 0.394432417,17.2511135 1.18784846,18.0305897 C3.07458666,19.887087 5.62738351,22.1800505 5.62738351,22.1800505 C5.71365788,22.0881097 5.79993224,21.9971792 5.88620661,21.9067539 C6.15889523,21.6193126 6.43158385,21.3323764 6.70375893,21.0459454 C7.12999537,20.597355 7.55520475,20.1482595 7.9814412,19.699164 C8.52784551,19.1242813 9.07579044,18.5478831 9.62219475,17.9714849 C10.2569276,17.3026407 10.893201,16.6337965 11.5269068,15.9649524 C12.2181288,15.2380137 12.9083237,14.5115802 13.5990322,13.7841364 C14.3123363,13.0334548 15.0246133,12.2827732 15.7374039,11.5315864 C16.4399238,10.7920185 17.1419301,10.0529558 17.8449634,9.31288278 C18.5038326,8.61827496 19.1637287,7.92417232 19.8225979,7.23006967 C20.4054634,6.61527861 20.9893559,6.00099272 21.5732485,5.38670683 C22.0462169,4.8865892 22.521753,4.38748191 22.996262,3.88786946 C23.3295481,3.53677678 23.6623207,3.18669444 23.9950932,2.8366121 C24.0978008,2.72749553 24.2010219,2.61888413 24.304243,2.51027272 C24.6493405,2.14604564 25.1705814,1.94397792 25.6240354,1.74241536 C26.9720723,1.14227421 28.3894369,0.69519936 29.8237482,0.343096344" id="Fill-18" fill="#DBDBDB"></path>
                        <path d="M0.142901558,15.092626 C0.169091991,14.7056663 0.238419606,14.3212324 0.346262563,13.9479123 C0.478755338,13.4897237 0.854151535,13.1800549 1.22492589,12.8835206 C1.51815603,12.6496272 1.8118997,12.4157338 2.10358922,12.1818404 C3.14607114,11.3518472 4.18701244,10.5208437 5.22898082,9.69034529 C6.52206922,8.65878954 7.81464409,7.62824413 9.10773249,6.59668838 C9.59405288,6.20871834 10.0798597,5.82074831 10.5661801,5.43328344 L9.02659351,18.5990062 C8.67841482,18.9662643 8.33023613,19.3335224 7.9815439,19.699265 C7.55530746,20.1483605 7.12958454,20.5969509 6.7033481,21.0460464 C6.43168655,21.3324774 6.15899793,21.6194136 5.88630931,21.9063498 C5.80003495,21.9972802 5.71376058,22.0882107 5.62748622,22.1796464 C5.62748622,22.1796464 3.07468937,19.8866828 1.18795116,18.0301856 C0.394535124,17.2507093 0.0725468674,16.1767193 0.142901558,15.092626" id="Fill-20" fill="#ECE8E2"></path>
                    </g>
                    <g id="Group-10" transform="translate(23.350254, 46.464646)">
                        <path d="M26.6694806,6.52194177 L26.6694806,6.40545139 C24.0885927,5.55608459 17.5315084,5.68118513 14.3697934,7.33332259 C11.0691076,9.05687371 10.2434271,13.6541918 5.78821384,13.4900923 C4.72480657,13.4515999 4.01773491,13.0641427 3.55144431,12.5009371 C2.62700793,13.9732742 1.83950623,15.5388036 1.20421074,17.1797985 C5.45936698,26.8008908 14.9913446,33.589241 26.1563573,33.9128817 C18.0950277,33.5249181 11.6921859,27.5469357 11.6921859,20.2277946 C11.6921859,12.6584523 18.5414653,6.52194177 26.9896736,6.52194177 C26.9387685,6.5011761 26.8843001,6.48142338 26.8293226,6.4606577 C26.7758722,6.48142338 26.7203857,6.5011761 26.6694806,6.52194177" id="Fill-10" fill="#ECE8E2"></path>
                        <path d="M27.8228372,33.9128817 C38.988359,33.589241 48.5188094,26.8008908 52.7744747,17.1797985 C52.107109,15.4521955 51.2681932,13.8096812 50.2785983,12.2704887 C49.8224887,12.957782 49.0736749,13.4460286 47.8718058,13.4900923 C43.4155744,13.6541918 42.590403,9.05687371 39.2892081,7.33332259 C36.1274931,5.68118513 29.5714269,5.55608459 26.9895209,6.40545139 L26.9895209,6.52194177 C35.4377292,6.52194177 42.2859905,12.6584523 42.2859905,20.2277946 C42.2859905,27.5469357 35.8831487,33.5249181 27.8228372,33.9128817" id="Fill-12" fill="#ECE8E2"></path>
                        <path d="M46.9867699,0.272030358 L27.0167042,0.272030358 L7.04714755,0.272030358 C3.21857595,0.272030358 0.115401833,3.35953188 0.115401833,7.16876726 C0.115401833,10.9774962 3.21857595,14.0644912 7.04714755,14.0644912 C8.88838456,14.0644912 10.5585805,13.3463027 11.7986284,12.1808924 C11.7986284,12.1808924 13.9936558,9.9280698 18.8708722,9.9280698 L27.0167042,9.91895316 L35.1620272,9.9280698 C40.0402617,9.9280698 42.2332529,12.1808924 42.2332529,12.1808924 C43.4743189,13.3463027 45.1445148,14.0644912 46.9867699,14.0644912 C50.8138144,14.0644912 53.9174975,10.9774962 53.9174975,7.16876726 C53.9174975,3.35953188 50.8138144,0.272030358 46.9867699,0.272030358" id="Fill-14" fill="#E0DDD8"></path>
                        <path d="M18.1041397,8.07004826 C18.1041397,9.5211132 16.9221236,10.6971595 15.4636929,10.6971595 C14.0057712,10.6971595 12.8227369,9.5211132 12.8227369,8.07004826 C12.8227369,6.6194898 14.0057712,5.44344346 15.4636929,5.44344346 C16.9221236,5.44344346 18.1041397,6.6194898 18.1041397,8.07004826" id="Fill-22" fill="#000401"></path>
                        <path d="M35.9288614,8.07004826 C35.9288614,9.5211132 37.1108776,10.6971595 38.5693083,10.6971595 C40.0282481,10.6971595 41.2102642,9.5211132 41.2102642,8.07004826 C41.2102642,6.6194898 40.0282481,5.44344346 38.5693083,5.44344346 C37.1108776,5.44344346 35.9288614,6.6194898 35.9288614,8.07004826" id="Fill-24" fill="#000401"></path>
                        <path d="M30.5360783,20.2735297 C30.2545732,19.9346946 29.7872645,19.7310897 29.3051933,19.7310897 L27.1101659,19.7310897 L26.9121452,19.7310897 L24.7155906,19.7310897 C24.2335195,19.7310897 23.7672289,19.9346946 23.4852147,20.2735297 C22.9858358,20.8737084 23.428201,21.6947123 23.7035975,22.2751383 C24.1062567,23.1224792 24.2961327,24.0022348 24.9512812,24.7796814 C25.2755466,25.1646062 25.7128213,25.4563386 26.3572797,25.5804262 C26.8317151,25.6705796 27.1895779,25.6710861 27.6640133,25.5804262 C28.3079626,25.4563386 28.7457464,25.1646062 29.0705209,24.7796814 C29.7246512,24.0022348 29.9145272,23.1224792 30.3171864,22.2751383 C30.5936011,21.6947123 31.0364753,20.8737084 30.5360783,20.2735297" id="Fill-26" fill="#000004"></path>
                        <path d="M31.7013467,20.2735297 C31.4188234,19.9346946 30.9515147,19.7310897 30.4694436,19.7310897 L28.732562,19.7310897 C29.2146332,19.7310897 29.6819419,19.9346946 29.9644651,20.2735297 C30.4633349,20.8737084 30.0209697,21.6947123 29.7455732,22.2751383 C29.342914,23.1224792 29.153038,24.0022348 28.4978895,24.7796814 C28.2107848,25.1200359 27.8345962,25.3874573 27.3067105,25.5302847 C27.3764505,25.5485179 27.4472085,25.5662447 27.52153,25.5804262 C27.9959654,25.6705796 28.3538281,25.6710861 28.8287726,25.5804262 C29.473231,25.4563386 29.9094876,25.1646062 30.2347711,24.7796814 C30.8899196,24.0022348 31.0797955,23.1224792 31.4824548,22.2751383 C31.7578513,21.6947123 32.2002165,20.8737084 31.7013467,20.2735297" id="Fill-28" fill="#504649"></path>
                    </g>
                </g>
            </g>
        </g>
    </g>
</svg>