<?xml version="1.0" encoding="UTF-8" standalone="no"?>
<svg width="122px" height="122px" viewBox="0 0 122 122" version="1.1" xmlns="http://www.w3.org/2000/svg" xmlns:xlink="http://www.w3.org/1999/xlink">
    <!-- Generator: Sketch 40 (33762) - http://www.bohemiancoding.com/sketch -->
    <title>website</title>
    <desc>Created with Sketch.</desc>
    <defs>
        <linearGradient x1="4.46015219%" y1="50%" x2="100%" y2="50%" id="linearGradient-1">
            <stop stop-color="#F73D3D" offset="0%"></stop>
            <stop stop-color="#F76A58" offset="100%"></stop>
        </linearGradient>
        <linearGradient x1="4.46015219%" y1="50%" x2="97.7591749%" y2="50%" id="linearGradient-2">
            <stop stop-color="#F76A58" offset="0%"></stop>
            <stop stop-color="#F73E3E" offset="100%"></stop>
        </linearGradient>
    </defs>
    <g id="Page-1" stroke="none" stroke-width="1" fill="none" fill-rule="evenodd">
        <g id="website">
            <g id="Group-Copy" transform="translate(24.000000, 31.000000)">
                <ellipse id="Oval-1-Copy-3" stroke="#F73D3D" stroke-width="3.80952381" fill-opacity="0" fill="#D8D8D8" cx="5.57901362" cy="5.78688733" rx="5.57901362" ry="5.5930011"></ellipse>
                <ellipse id="Oval-1-Copy-7" stroke="#F73D3D" stroke-width="3.80952381" fill-opacity="0" fill="#D8D8D8" cx="5.57901362" cy="55.005297" rx="5.57901362" ry="5.5930011"></ellipse>
                <ellipse id="Oval-1-Copy-5" stroke="#F76A58" stroke-width="3.80952381" cx="23.4318572" cy="30.3960922" rx="5.57901362" ry="5.5930011"></ellipse>
                <ellipse id="Oval-1-Copy-4" stroke="#F76A58" stroke-width="3.80952381" cx="56.1620704" cy="5.78688733" rx="5.57901362" ry="5.5930011"></ellipse>
                <ellipse id="Oval-1-Copy-8" stroke="#F76A58" stroke-width="3.80952381" cx="56.1620704" cy="54.6324302" rx="5.57901362" ry="5.5930011"></ellipse>
                <ellipse id="Oval-1-Copy-6" stroke="#F73E3E" stroke-width="3.80952381" fill-opacity="0" fill="#D8D8D8" cx="74.014914" cy="30.3960922" rx="5.57901362" ry="5.5930011"></ellipse>
                <path d="M50.2111226,7.6235119 C51.2630935,7.6235119 52.1158845,6.77072095 52.1158845,5.71875 C52.1158845,4.66677905 51.2630935,3.8139881 50.2111226,3.8139881 L11.5299615,3.8139881 C10.4779905,3.8139881 9.62519957,4.66677905 9.62519957,5.71875 C9.62519957,6.77072095 10.4779905,7.6235119 11.5299615,7.6235119 L50.2111226,7.6235119 Z" id="Line" fill="url(#linearGradient-1)"></path>
                <path d="M50.2111226,55.9151786 C51.2630935,55.9151786 52.1158845,55.0623876 52.1158845,54.0104167 C52.1158845,52.9584457 51.2630935,52.1056548 50.2111226,52.1056548 L11.5299615,52.1056548 C10.4779905,52.1056548 9.62519957,52.9584457 9.62519957,54.0104167 C9.62519957,55.0623876 10.4779905,55.9151786 11.5299615,55.9151786 L50.2111226,55.9151786 Z" id="Line-Copy-2" fill="url(#linearGradient-1)"></path>
                <path d="M29.382805,27.9598214 C28.3308341,27.9598214 27.4780431,28.8126124 27.4780431,29.8645833 C27.4780431,30.9165543 28.3308341,31.7693452 29.382805,31.7693452 L68.0639661,31.7693452 C69.1159371,31.7693452 69.968728,30.9165543 69.968728,29.8645833 C69.968728,28.8126124 69.1159371,27.9598214 68.0639661,27.9598214 L29.382805,27.9598214 Z" id="Line-Copy" fill="url(#linearGradient-2)"></path>
            </g>
        </g>
    </g>
</svg>