<?xml version="1.0" encoding="UTF-8" standalone="no"?>
<svg width="122px" height="122px" viewBox="0 0 122 122" version="1.1" xmlns="http://www.w3.org/2000/svg" xmlns:xlink="http://www.w3.org/1999/xlink">
    <!-- Generator: Sketch 40.3 (33839) - http://www.bohemiancoding.com/sketch -->
    <title>prototype</title>
    <desc>Created with Sketch.</desc>
    <defs>
        <linearGradient x1="4.46015219%" y1="50%" x2="100%" y2="50%" id="linearGradient-1">
            <stop stop-color="#F73D3D" offset="0%"></stop>
            <stop stop-color="#F76A58" offset="100%"></stop>
        </linearGradient>
        <linearGradient x1="4.46015219%" y1="50%" x2="97.7591749%" y2="50%" id="linearGradient-2">
            <stop stop-color="#F76A58" offset="0%"></stop>
            <stop stop-color="#F73E3E" offset="100%"></stop>
        </linearGradient>
    </defs>
    <g id="Page-1" stroke="none" stroke-width="1" fill="none" fill-rule="evenodd">
        <g id="prototype">
            <g id="Group-Copy" transform="translate(22.000000, 29.000000)">
                <path d="M15.0627891,7.78688733 C15.0627891,3.64705339 11.7132579,0.289124331 7.57901362,0.289124331 C3.44476935,0.289124331 0.0952380952,3.64705339 0.0952380952,7.78688733 C0.0952380952,11.9267213 3.44476935,15.2846503 7.57901362,15.2846503 C11.7132579,15.2846503 15.0627891,11.9267213 15.0627891,7.78688733 Z M3.9047619,7.78688733 C3.9047619,5.74886285 5.55084961,4.09864814 7.57901362,4.09864814 C9.60717762,4.09864814 11.2532653,5.74886285 11.2532653,7.78688733 C11.2532653,9.82491181 9.60717762,11.4751265 7.57901362,11.4751265 C5.55084961,11.4751265 3.9047619,9.82491181 3.9047619,7.78688733 Z" id="Oval-1-Copy-3" fill="#F73D3D"></path>
                <path d="M15.0627891,57.005297 C15.0627891,52.865463 11.7132579,49.507534 7.57901362,49.507534 C3.44476935,49.507534 0.0952380952,52.865463 0.0952380952,57.005297 C0.0952380952,61.1451309 3.44476935,64.50306 7.57901362,64.50306 C11.7132579,64.50306 15.0627891,61.1451309 15.0627891,57.005297 Z M3.9047619,57.005297 C3.9047619,54.9672725 5.55084961,53.3170578 7.57901362,53.3170578 C9.60717762,53.3170578 11.2532653,54.9672725 11.2532653,57.005297 C11.2532653,59.0433215 9.60717762,60.6935362 7.57901362,60.6935362 C5.55084961,60.6935362 3.9047619,59.0433215 3.9047619,57.005297 Z" id="Oval-1-Copy-7" fill="#F73D3D"></path>
                <path d="M32.9156327,32.3960922 C32.9156327,28.2562582 29.5661015,24.8983292 25.4318572,24.8983292 C21.2976129,24.8983292 17.9480817,28.2562582 17.9480817,32.3960922 C17.9480817,36.5359261 21.2976129,39.8938552 25.4318572,39.8938552 C29.5661015,39.8938552 32.9156327,36.5359261 32.9156327,32.3960922 Z M21.7576055,32.3960922 C21.7576055,30.3580677 23.4036932,28.707853 25.4318572,28.707853 C27.4600212,28.707853 29.1061089,30.3580677 29.1061089,32.3960922 C29.1061089,34.4341166 27.4600212,36.0843313 25.4318572,36.0843313 C23.4036932,36.0843313 21.7576055,34.4341166 21.7576055,32.3960922 Z" id="Oval-1-Copy-5" fill="#F76A58"></path>
                <path d="M65.6458459,7.78688733 C65.6458459,3.64705339 62.2963147,0.289124331 58.1620704,0.289124331 C54.0278261,0.289124331 50.6782949,3.64705339 50.6782949,7.78688733 C50.6782949,11.9267213 54.0278261,15.2846503 58.1620704,15.2846503 C62.2963147,15.2846503 65.6458459,11.9267213 65.6458459,7.78688733 Z M54.4878187,7.78688733 C54.4878187,5.74886285 56.1339064,4.09864814 58.1620704,4.09864814 C60.1902344,4.09864814 61.8363221,5.74886285 61.8363221,7.78688733 C61.8363221,9.82491181 60.1902344,11.4751265 58.1620704,11.4751265 C56.1339064,11.4751265 54.4878187,9.82491181 54.4878187,7.78688733 Z" id="Oval-1-Copy-4" fill="#F76A58"></path>
                <path d="M65.6458459,56.6324302 C65.6458459,52.4925963 62.2963147,49.1346672 58.1620704,49.1346672 C54.0278261,49.1346672 50.6782949,52.4925963 50.6782949,56.6324302 C50.6782949,60.7722642 54.0278261,64.1301932 58.1620704,64.1301932 C62.2963147,64.1301932 65.6458459,60.7722642 65.6458459,56.6324302 Z M54.4878187,56.6324302 C54.4878187,54.5944058 56.1339064,52.9441911 58.1620704,52.9441911 C60.1902344,52.9441911 61.8363221,54.5944058 61.8363221,56.6324302 C61.8363221,58.6704547 60.1902344,60.3206694 58.1620704,60.3206694 C56.1339064,60.3206694 54.4878187,58.6704547 54.4878187,56.6324302 Z" id="Oval-1-Copy-8" fill="#F76A58"></path>
                <path d="M83.4986895,32.3960922 C83.4986895,28.2562582 80.1491583,24.8983292 76.014914,24.8983292 C71.8806697,24.8983292 68.5311385,28.2562582 68.5311385,32.3960922 C68.5311385,36.5359261 71.8806697,39.8938552 76.014914,39.8938552 C80.1491583,39.8938552 83.4986895,36.5359261 83.4986895,32.3960922 Z M72.3406623,32.3960922 C72.3406623,30.3580677 73.98675,28.707853 76.014914,28.707853 C78.043078,28.707853 79.6891657,30.3580677 79.6891657,32.3960922 C79.6891657,34.4341166 78.043078,36.0843313 76.014914,36.0843313 C73.98675,36.0843313 72.3406623,34.4341166 72.3406623,32.3960922 Z" id="Oval-1-Copy-6" fill="#F73E3E"></path>
                <path d="M52.2111226,9.6235119 C53.2630935,9.6235119 54.1158845,8.77072095 54.1158845,7.71875 C54.1158845,6.66677905 53.2630935,5.8139881 52.2111226,5.8139881 L13.5299615,5.8139881 C12.4779905,5.8139881 11.6251996,6.66677905 11.6251996,7.71875 C11.6251996,8.77072095 12.4779905,9.6235119 13.5299615,9.6235119 L52.2111226,9.6235119 Z" id="Line" fill="url(#linearGradient-1)"></path>
                <path d="M52.2111226,57.9151786 C53.2630935,57.9151786 54.1158845,57.0623876 54.1158845,56.0104167 C54.1158845,54.9584457 53.2630935,54.1056548 52.2111226,54.1056548 L13.5299615,54.1056548 C12.4779905,54.1056548 11.6251996,54.9584457 11.6251996,56.0104167 C11.6251996,57.0623876 12.4779905,57.9151786 13.5299615,57.9151786 L52.2111226,57.9151786 Z" id="Line-Copy-2" fill="url(#linearGradient-1)"></path>
                <path d="M31.382805,29.9598214 C30.3308341,29.9598214 29.4780431,30.8126124 29.4780431,31.8645833 C29.4780431,32.9165543 30.3308341,33.7693452 31.382805,33.7693452 L70.0639661,33.7693452 C71.1159371,33.7693452 71.968728,32.9165543 71.968728,31.8645833 C71.968728,30.8126124 71.1159371,29.9598214 70.0639661,29.9598214 L31.382805,29.9598214 Z" id="Line-Copy" fill="url(#linearGradient-2)"></path>
            </g>
        </g>
    </g>
</svg>