<?xml version="1.0" encoding="UTF-8" standalone="no"?>
<svg width="122px" height="122px" viewBox="0 0 122 122" version="1.1" xmlns="http://www.w3.org/2000/svg" xmlns:xlink="http://www.w3.org/1999/xlink">
    <!-- Generator: Sketch 40 (33762) - http://www.bohemiancoding.com/sketch -->
    <title>shopping</title>
    <desc>Created with Sketch.</desc>
    <defs>
        <filter x="-50%" y="-50%" width="200%" height="200%" filterUnits="objectBoundingBox" id="filter-1">
            <feOffset dx="0" dy="2" in="SourceAlpha" result="shadowOffsetOuter1"></feOffset>
            <feGaussianBlur stdDeviation="1.5" in="shadowOffsetOuter1" result="shadowBlurOuter1"></feGaussianBlur>
            <feColorMatrix values="0 0 0 0 0   0 0 0 0 0   0 0 0 0 0  0 0 0 0.06 0" type="matrix" in="shadowBlurOuter1" result="shadowMatrixOuter1"></feColorMatrix>
            <feMerge>
                <feMergeNode in="shadowMatrixOuter1"></feMergeNode>
                <feMergeNode in="SourceGraphic"></feMergeNode>
            </feMerge>
        </filter>
        <linearGradient x1="17.4097341%" y1="0%" x2="81.1518171%" y2="100%" id="linearGradient-2">
            <stop stop-color="#5300B5" offset="0%"></stop>
            <stop stop-color="#400092" offset="100%"></stop>
        </linearGradient>
        <path d="M65.1358333,0 C75.175,0 80.1933333,0 85.5975,1.70833333 C91.4975,3.85583333 96.1441667,8.5025 98.2916667,14.4025 C100,19.8058333 100,24.8258333 100,34.8641667 L100,65.1358333 C100,75.175 100,80.1933333 98.2916667,85.5975 C96.1441667,91.4975 91.4975,96.1441667 85.5975,98.2908333 C80.1933333,100 75.175,100 65.1358333,100 L34.8641667,100 C24.825,100 19.8058333,100 14.4025,98.2908333 C8.5025,96.1441667 3.85583333,91.4975 1.70833333,85.5975 C0,80.1933333 0,75.175 0,65.1358333 L0,34.8641667 C0,24.8258333 0,19.8058333 1.70833333,14.4025 C3.85583333,8.5025 8.5025,3.85583333 14.4025,1.70833333 C19.8058333,0 24.825,0 34.8641667,0 L65.1358333,0 Z" id="path-3"></path>
        <linearGradient x1="0%" y1="100%" x2="67.3887915%" y2="32.6112085%" id="linearGradient-5">
            <stop stop-color="#F2695B" stop-opacity="0.8" offset="0%"></stop>
            <stop stop-color="#F2695B" stop-opacity="0" offset="100%"></stop>
        </linearGradient>
    </defs>
    <g id="Page-1" stroke="none" stroke-width="1" fill="none" fill-rule="evenodd">
        <g id="shopping">
            <g id="Group-2" filter="url(#filter-1)" transform="translate(15.000000, 15.000000)">
                <mask id="mask-4" fill="white">
                    <use xlink:href="#path-3"></use>
                </mask>
                <use id="Icon-Shape" fill="url(#linearGradient-2)" xlink:href="#path-3"></use>
                <g id="180x180-iPhone@3x" mask="url(#mask-4)">
                    <g id="dogfood-bg-+-Rectangle-1-+-Rectangle-1">
                        <rect id="Rectangle-1" fill="#7A00A7" x="0" y="0" width="100" height="100"></rect>
                        <rect id="Rectangle-1" fill="url(#linearGradient-5)" x="0" y="0" width="100" height="100"></rect>
                    </g>
                    <g id="Imported-Layers" transform="translate(17.777778, 12.222222)">
                        <path d="M60.5555556,52.7777778 L58.3333333,31.1111111 C58.3469072,31.1258656 58.3301302,31.06782 58.3333333,31.1111111 C58.2876635,30.924383 58.2504396,30.8420873 58.3333333,30.5555556 C58.1387678,30.6741421 58.0577665,30.5895246 57.7777778,30.5555556 L52.2222222,25.5555556 L48.8888889,25.5555556 L53.8888889,31.6666667 C54.2223933,32.0001607 54.2879284,32.1049007 54.4444444,32.2222222 C54.3697161,32.3074152 54.3930466,32.4051898 54.4444444,32.7777778 C54.4119207,32.5705551 54.4187363,32.6368561 54.4444444,32.7777778 L52.7777778,54.4444444 L59.4444444,53.3333333 C59.8762331,53.5822744 60.1137321,53.4739227 60.5555556,53.3333333 C60.4705049,53.1509314 60.5766717,52.9270045 60.5555556,52.7777778" id="Fill-2" fill="#FFFFFF"></path>
                        <path d="M51.1111111,17.7777778 L51.1111111,14.4444444 L57.7777778,14.4444444 L57.7777778,10.5555556 L51.1111111,10.5555556 L51.1111111,7.77777778 L58.8888889,7.77777778 L58.8888889,3.33333333 L51.1111111,3.33333333 L51.1111111,0 L46.1111111,0 L46.1111111,3.33333333 L36.6666667,3.33333333 L36.6666667,0 L31.6666667,0 L31.6666667,3.33333333 L23.8888889,3.33333333 L23.8888889,7.77777778 L31.6666667,7.77777778 L31.6666667,10.5555556 L25,10.5555556 L25,14.4444444 L31.6666667,14.4444444 L31.6666667,17.7777778 L23.8888889,17.7777778 L23.8888889,22.2222222 L58.8888889,22.2222222 L58.8888889,17.7777778 L51.1111111,17.7777778 L51.1111111,17.7777778 Z M36.6666667,14.4444444 L46.6666667,14.4444444 L46.6666667,17.7777778 L36.6666667,17.7777778 L36.6666667,14.4444444 Z M36.6666667,7.77777778 L46.6666667,7.77777778 L46.6666667,11.1111111 L36.6666667,11.1111111 L36.6666667,7.77777778 Z" id="Fill-3" fill="#FAFAFA"></path>
                        <path d="M5,41.1111111 L21.1111111,41.1111111 L21.1111111,1.66666667 L5,1.66666667 L5,41.1111111 Z M10,28.8888889 L16.1111111,28.8888889 L16.1111111,36.6666667 L10,36.6666667 L10,28.8888889 Z M10,17.2222222 L16.1111111,17.2222222 L16.1111111,24.4444444 L10,24.4444444 L10,17.2222222 Z M10,6.11111111 L16.1111111,6.11111111 L16.1111111,12.7777778 L10,12.7777778 L10,6.11111111 Z" id="Fill-4" fill="#FAFAFA"></path>
                        <polyline id="Fill-5" fill="#FAFAFA" points="45 26.6666667 39.4444444 25.5555556 40.5555556 20 45.5555556 20.5555556 45 26.6666667"></polyline>
                        <path d="M2.77777778,53.3333333 L7.77777778,55.5555556 C9.34719607,52.4575905 10.6415926,48.565934 11.6666667,43.8888889 L6.66666667,43.8888889 C5.51247459,47.7276153 4.19309455,50.964911 2.77777778,53.3333333" id="Fill-6" fill="#FAFAFA"></path>
                        <path d="M16.6666667,48.3333333 C17.3596091,49.5980854 17.7979817,50.7795077 18.3333333,52.2222222 C18.3830989,52.5623287 18.5721122,53.1428802 18.8888889,53.8888889 L23.3333333,52.2222222 C22.9989047,51.0067145 22.7479504,50.2607058 22.7777778,49.4444444 C21.8063398,47.5416135 20.9798386,45.5980854 20,43.8888889 L15,43.8888889 L16.6666667,48.3333333" id="Fill-7" fill="#FAFAFA"></path>
                        <path d="M51.6666667,32.7777778 C51.6107108,32.4554056 51.5549624,32.3115728 51.6666667,32.2222222 L43.3333333,22.7777778 C42.7729425,22.3057577 41.5961178,22.1055649 41.1111111,22.2222222 L28.8888889,28.3333333 C28.8154901,28.5665646 28.7523596,28.6190993 28.8888889,28.8888889 C28.5166382,28.8534651 28.3832495,29.0842607 28.3333333,29.4444444 L25,50.5555556 C24.9118328,51.369418 25.3537467,51.9840227 26.1111111,52.2222222 L46.6666667,55.5555556 C47.2849951,55.6471686 47.8903357,55.2069994 47.7777778,54.4444444 L51.6666667,33.3333333 C51.6819872,32.944029 51.6626407,32.763983 51.6666667,32.7777778 L51.6666667,32.7777778 Z M43.3333333,31.1111111 C43.0301475,32.9798563 41.46508,34.1158468 40,33.8888889 C38.1317408,33.5844682 36.9955775,32.0183259 37.2222222,30.5555556 C37.5250949,28.6858371 39.0911512,27.5508464 40.5555556,27.7777778 C42.4239959,28.082225 43.5601593,29.6476174 43.3333333,31.1111111 L43.3333333,31.1111111 Z" id="Fill-8" fill="#FAFAFA"></path>
                        <path d="M61.1111111,72.7777778 C61.3112662,72.6565923 61.3753541,72.6625736 61.6666667,72.7777778 L61.6666667,72.7777778 C61.5570958,72.6937801 61.6637496,72.7286275 61.6666667,72.7777778 C61.7861861,72.6355279 61.8237301,72.4087603 61.6666667,72.2222222 C62.036081,71.1417744 62.3335636,69.3619607 62.7777778,67.2222222 C63.0574219,66.0311816 63.8551726,62.3058996 63.8888889,62.2222222 C63.8623466,62.2775536 63.868325,62.2432264 63.8888889,62.2222222 C63.8963036,62.055467 63.8929558,61.9204987 63.8888889,61.6666667 C63.8391506,61.6776077 63.7929978,61.5702051 63.8888889,61.6666667 C63.6617133,61.3871267 63.5761034,61.3104106 63.3333333,61.1111111 C63.3723613,61.1923458 63.2535117,61.150477 63.3333333,61.1111111 L63.3333333,61.1111111 C62.9921384,61.1054876 62.8687453,61.1054876 62.7777778,61.1111111 C62.6408507,61.1494368 62.537784,61.1946863 62.2222222,61.1111111 C62.3608249,61.3236734 62.2857368,61.4100115 62.2222222,61.6666667 C62.1666481,61.621956 62.1255171,61.7488626 62.2222222,61.6666667 C62.1037559,61.9007345 62.098495,61.9376623 62.2222222,62.2222222 C62.0927558,61.9875927 62.0827121,62.0897942 62.2222222,62.2222222 C61.9688844,63.5367379 61.7892949,65.8686474 61.6666667,66.6666667 C61.5348564,69.2243919 61.3122227,71.0172082 61.1111111,72.2222222 C61.1536769,72.2932961 61.1256983,72.5218841 61.1111111,72.7777778 C61.1553509,72.659713 61.2017429,72.6565923 61.1111111,72.7777778" id="Fill-9" fill="#FFFFFF"></path>
                        <path d="M55.8571837,74.7427021 C56.6674664,74.4601828 57.3756927,74.0478435 57.9651528,73.5187946 C58.6070551,72.9427021 59.1119394,72.2272779 59.4697801,71.3928306 C59.8260783,70.5578692 60.0073122,69.5938589 60.0073122,68.5288203 C60.0073122,67.4630106 59.8260783,66.4995144 59.4697801,65.664553 C59.1121965,64.8295915 58.6070551,64.1144245 57.9651528,63.5378178 C57.3219652,62.9606969 56.543559,62.5154527 55.6484433,62.2146815 C54.7525564,61.9133962 53.7522993,61.7604399 52.6759497,61.7604399 C51.6137389,61.7604399 50.6206798,61.9133962 49.7237646,62.2146815 C49.6121965,62.2527278 49.4967724,62.2938589 49.3834047,62.3383319 C48.6332762,62.6319052 47.9672094,63.0347329 47.4078263,63.5378178 C46.7654099,64.1144245 46.2594973,64.8301057 45.9037132,65.664553 C45.5466438,66.4984861 45.3646387,67.4619823 45.3646387,68.5288203 C45.3646387,69.5948872 45.5466438,70.5586404 45.9037132,71.3928306 C46.2594973,72.2267638 46.7654099,72.9427021 47.4078263,73.5187946 C48.0494716,74.0961725 48.828649,74.5319052 49.7235076,74.8141674 C50.6191374,75.0966867 51.6124536,75.2396173 52.6759497,75.2396173 C53.7543559,75.2396173 54.7543559,75.0966867 55.6484433,74.8141674 C55.7039703,74.7964296 55.7587261,74.7768923 55.8116824,74.7583833 C55.8263353,74.7532419 55.8420166,74.7478435 55.8571837,74.7427021 M55.4219652,73.9087689 C55.2193945,74.0167381 55.0121965,74.1095401 54.8088546,74.1835761 C54.15487,74.4211083 53.4379035,74.5416738 52.6751785,74.5416738 C51.9258212,74.5416738 51.2150243,74.4211083 50.5628392,74.1835761 C49.9093688,73.9468152 49.332505,73.5763782 48.8487004,73.0822908 C48.362325,72.5887175 47.9792916,71.9555556 47.7080834,71.2005427 C47.4371322,70.4447586 47.299343,69.5365324 47.299343,68.5000286 C47.299343,67.4635247 47.4371322,66.5547843 47.7080834,65.7990003 C47.9792916,65.0445016 48.362325,64.4105684 48.8487004,63.9175093 C49.1371322,63.6234219 49.4615538,63.3704656 49.8152813,63.1655813 C50.0535847,63.0270209 50.3042274,62.9095401 50.5628392,62.8162239 C51.2152813,62.5781777 51.9265924,62.4581262 52.6751785,62.4581262 C53.4379035,62.4581262 54.1543559,62.5781777 54.8088546,62.8162239 C55.4605256,63.053499 56.0368752,63.4231648 56.5232505,63.9175093 C57.0073122,64.4105684 57.3900885,65.0445016 57.6630963,65.7990003 C57.9337903,66.5547843 58.0713225,67.4635247 58.0713225,68.5000286 C58.0713225,69.5365324 57.9337903,70.4447586 57.6630963,71.2005427 C57.3900885,71.9555556 57.0073122,72.5887175 56.5232505,73.0822908 C56.199086,73.4123679 55.8278777,73.6907741 55.4219652,73.9087689" id="Fill-10" fill="#FFFFFF"></path>
                        <path d="M44.1911168,71.0840903 C44.4988289,70.3375607 44.6553842,69.4748358 44.6553842,68.5211083 C44.6553842,67.5668666 44.4988289,66.705427 44.1908598,65.9581262 C43.8818623,65.2115967 43.4430448,64.5714939 42.888032,64.0552985 C42.3317338,63.538589 41.6569266,63.1406455 40.8834047,62.8717509 C40.1096258,62.601828 39.2440731,62.4648101 38.3116824,62.4648101 C37.3908598,62.4648101 36.5312197,62.601828 35.7564125,62.8717509 C34.9826335,63.1406455 34.3083405,63.538589 33.7522993,64.0552985 C33.1972865,64.5717509 32.7587261,65.2121108 32.4502428,65.9581262 C32.1412454,66.705427 31.984433,67.5668666 31.984433,68.5211083 C31.984433,69.475864 32.1412454,70.3378178 32.4502428,71.0840903 C32.7587261,71.8306198 33.1972865,72.4714939 33.7522993,72.9874322 C34.3080834,73.5031134 34.9823765,73.8936018 35.7564125,74.1457869 C36.5314767,74.3987432 37.3908598,74.5267638 38.3116824,74.5267638 C39.2427878,74.5267638 40.1085975,74.3987432 40.8834047,74.1457869 C41.6579549,73.8933448 42.3319909,73.5031134 42.888032,72.9874322 C43.4430448,72.4714939 43.8818623,71.8316481 44.1911168,71.0840903 M42.4013996,70.9169951 C42.1782634,71.5871751 41.8651528,72.1499 41.4679806,72.586918 C41.0720937,73.0252214 40.5983148,73.3540131 40.0638675,73.5642959 C39.5291631,73.7753499 38.9417595,73.8822908 38.317595,73.8822908 C37.7039703,73.8822908 37.121451,73.7753499 36.5875179,73.5642959 C36.0525564,73.3540131 35.580834,73.0252214 35.1841759,72.586918 C34.7877749,72.1499 34.4728649,71.5871751 34.2515281,70.9169951 C34.028906,70.2463011 33.9163096,69.4416738 33.9163096,68.5231648 C33.9163096,67.6056841 34.028906,66.8002856 34.2515281,66.1295915 C34.4723508,65.4596687 34.7877749,64.8972008 35.1841759,64.4594116 C35.580834,64.0216224 36.0525564,63.6933448 36.5875179,63.4822908 C37.1224793,63.272008 37.7044844,63.1653242 38.317595,63.1653242 C38.9404742,63.1653242 39.5291631,63.272008 40.0638675,63.4822908 C40.5983148,63.6933448 41.0720937,64.0216224 41.4679806,64.4594116 C41.8651528,64.8972008 42.1782634,65.4596687 42.4013996,66.1295915 C42.6222222,66.7992574 42.7355898,67.60517 42.7355898,68.5231648 C42.7355898,69.4421879 42.6222222,70.2478435 42.4013996,70.9169951" id="Fill-11" fill="#FFFFFF"></path>
                        <path d="M9.98211939,64.1357612 C10.1551271,63.8439874 10.3188803,63.5686661 10.451014,63.3439874 C10.8996001,62.5804913 11.2906027,61.9596687 11.5083405,61.6334476 C11.6594973,61.4043987 11.7615538,61.2529849 11.8777492,61.072008 C11.8810911,61.0663525 11.8970294,61.0514424 11.9019137,61.046044 C11.8944587,61.0493859 11.8764639,61.0550414 11.8708083,61.057355 C11.5710654,61.1375607 11.2368752,61.1784347 10.9235076,61.1784347 C10.5911168,61.1784347 10.273379,61.1370466 9.97569266,61.0555556 C9.97415024,61.0555556 9.95666952,61.0483576 9.95024279,61.046044 C9.94947158,61.0468152 9.94947158,61.0511854 9.94895744,61.0514424 C9.35615538,62.1182805 7.77852042,64.7151957 6.83661811,66.264553 C6.39394459,66.9920594 6.08931734,67.5175093 6.03173379,67.6041417 L6.01348186,67.6031134 C5.97312197,67.5167381 5.64355898,66.9856327 5.2013996,66.2583833 C4.2576978,64.7079977 2.6854613,62.1527278 2.09574407,61.0478435 L2.05332762,61.0637818 C1.75564125,61.1452728 1.44433019,61.1833191 1.11322479,61.1833191 C0.79702942,61.1833191 0.460268495,61.1331905 0.158983148,61.0514424 C0.155384176,61.0511854 0.147157955,61.0463011 0.143816053,61.0452728 C0.1451014,61.0483576 0.151785204,61.0545273 0.153841759,61.057355 C0.272607826,61.2450157 0.3795487,61.4082548 0.528134819,61.6334476 C0.745358469,61.9596687 1.13636104,62.5804913 1.58443302,63.3439874 C1.71836618,63.5696944 1.8828906,63.8473293 2.05692659,64.1411597 C2.36155384,64.6547843 2.70705513,65.2367895 2.97389317,65.6995144 C3.35821194,66.3668666 3.81348186,67.1540131 4.25281348,67.9270209 C4.61836618,68.5676378 4.91836618,69.0938589 5.19317338,69.5807484 L5.19754356,69.5959155 L5.20062839,70.1560697 C5.20062839,70.9295915 5.18237646,71.7499 5.15487004,72.4673807 C5.14253071,72.7972008 5.12813482,73.3840903 5.113996,74.0067124 C5.09677235,74.7596687 5.08006284,75.5432162 5.06155384,75.9409026 C5.36283919,75.8563268 5.68006284,75.8087689 6.01682376,75.8087689 C6.3543559,75.8087689 6.67826335,75.8524707 6.9795487,75.9365324 C6.96078263,75.5380748 6.94304484,74.757355 6.92582119,74.001828 C6.91142531,73.3812625 6.89857184,72.7966867 6.88520423,72.4678949 C6.85744073,71.7522137 6.8417595,70.931134 6.8417595,70.1555556 L6.84690089,69.5995144 L6.85281348,69.579463 C7.13096258,69.086918 7.43070551,68.5455298 7.78391888,67.9270209 C8.23867466,67.1262496 8.70628392,66.3157098 9.06129677,65.6995144 C9.3299343,65.2347329 9.67646387,64.6509283 9.98211939,64.1357612" id="Fill-12" fill="#FFFFFF"></path>
                        <path d="M31.3949729,74.3799771 C31.3636104,73.7339617 31.3322479,73.009026 31.3013996,72.2244502 C31.273122,71.4946301 31.2592402,70.749643 31.2592402,70.0095401 L31.2592402,67.0802342 C31.2592402,66.3409026 31.273122,65.5987432 31.3013996,64.8743216 C31.3124536,64.6079977 31.3224793,64.3357612 31.3322479,64.0478435 C31.3502428,63.5702085 31.3677235,63.0761211 31.3888032,62.6067124 C31.0839189,62.6923165 30.7615538,62.7362753 30.4199086,62.7362753 C30.0823765,62.7362753 29.7507569,62.6920594 29.4458726,62.6049129 L29.4461297,62.6103113 L29.4636104,62.8835761 C29.4947158,63.5642959 29.521451,64.268152 29.5456155,64.8853756 C29.5741502,65.5972008 29.5882891,66.3352471 29.5882891,67.0802342 L29.5888032,68.0946301 L29.5839189,68.1007998 C29.5839189,68.1007998 28.7170808,68.1177664 28.2965153,68.1259926 L28.088032,68.1298486 C27.5201657,68.1414167 26.9227364,68.1468152 26.3129677,68.1468152 C25.7019137,68.1468152 25.1049986,68.1414167 24.5368752,68.1298486 L24.3322479,68.1259926 C23.9111682,68.1177664 23.4774921,68.1095401 23.0379035,68.1000286 L23.0335333,68.0959155 L23.0345616,67.0802342 C23.0345616,66.3357612 23.0484433,65.5974579 23.076978,64.8853756 C23.1013996,64.2606969 23.1358469,63.5465581 23.1669523,62.8565838 L23.1785204,62.6028563 C22.873122,62.6902599 22.5469009,62.7362753 22.2091117,62.7362753 C21.8682376,62.7362753 21.5389317,62.6923165 21.2340474,62.6067124 C21.2553842,63.0776635 21.2736361,63.5722651 21.2908598,64.0509283 C21.3019137,64.338589 21.3109112,64.609026 21.3211939,64.8743216 C21.3499857,65.5956584 21.3641245,66.3383319 21.3641245,67.0802342 L21.3641245,70.0095401 C21.3641245,70.7522137 21.3499857,71.4972008 21.3211939,72.2244502 C21.2900885,73.0272779 21.2592402,73.7316481 21.2276207,74.3792059 C21.5358469,74.2920594 21.8648957,74.2491288 22.2055127,74.2491288 C22.5422736,74.2491288 22.8679806,74.2928306 23.173122,74.3799771 L23.1718366,74.357355 C23.1381605,73.6501571 23.106541,72.9283062 23.0792916,72.2133962 C23.0502428,71.4959155 23.0366181,70.7550414 23.0366181,70.0095401 L23.0379035,68.9110825 L23.0412454,68.9033705 C23.5481862,68.8948872 24.0520423,68.8856327 24.5394459,68.8804913 C25.1073122,68.8743216 25.7042274,68.8717509 26.3129677,68.8717509 C26.9211939,68.8717509 27.5173379,68.8743216 28.0849472,68.8804913 C28.5744073,68.8856327 29.073379,68.8920594 29.5795487,68.9013139 L29.5862325,68.9121108 L29.5882891,70.0095401 C29.5882891,70.7550414 29.5741502,71.4961725 29.5456155,72.2133962 C29.517595,72.9277921 29.4862325,73.649643 29.4525564,74.3578692 L29.451014,74.3799771 C29.7576978,74.2928306 30.0870037,74.2491288 30.4242788,74.2491288 C30.7633533,74.2491288 31.0867466,74.2928306 31.3949729,74.3799771" id="Fill-13" fill="#FFFFFF"></path>
                        <path d="M12.3746644,70.938589 L12.3836618,70.9321622 C12.4592402,70.9295915 12.5304484,70.9234219 12.6085975,70.9213653 C12.8381605,70.9139103 13.0746644,70.9092831 13.2913739,70.9064553 C13.6780063,70.9007998 14.410397,70.897972 14.7800628,70.897972 L14.8060268,70.897972 C15.1759497,70.897972 15.9034562,70.897972 16.2911168,70.9043987 C16.5019137,70.9069694 16.7337903,70.9139103 16.958469,70.9208512 C17.0412454,70.9229077 17.1211939,70.9303628 17.2001143,70.9329334 L17.206541,70.938589 C17.4633533,71.5856327 17.7055127,72.1815196 17.917852,72.712882 C18.262068,73.5766352 18.5096258,74.2049129 18.5772351,74.3843473 C18.8813482,74.2987432 19.2070551,74.2542702 19.5420166,74.2542702 C19.880834,74.2542702 20.2057698,74.2969437 20.5093688,74.383062 C20.4774921,74.32008 20.388032,74.1439874 20.3337903,74.0411597 C19.0700371,71.6151957 16.4083405,65.0023422 15.5764639,62.8771494 C15.5764639,62.8771494 15.4936875,62.6676378 15.4715795,62.6074836 C15.4708083,62.6074836 15.4700371,62.6077406 15.4690089,62.6085119 C15.4677235,62.609026 15.4651528,62.6097972 15.4630963,62.6108255 C15.2556412,62.6923165 15.0294202,62.7324193 14.7882891,62.7324193 C14.565667,62.7324193 14.3543559,62.6982291 14.158469,62.6272779 C14.1458726,62.6229077 14.1219652,62.6139103 14.1067981,62.6074836 C14.0846901,62.6666095 14.0566695,62.7403885 14.02505,62.82008 C13.1111682,65.1696944 12.7625821,65.9727792 12.5415024,66.5265067 C11.6263353,68.8121108 10.2332762,72.1005427 9.2517852,74.042445 C9.20062839,74.1437304 9.10268495,74.3180234 9.06952299,74.3838332 C9.37415024,74.297972 9.70114253,74.2542702 10.0397029,74.2542702 C10.3646387,74.2542702 10.6756927,74.2933448 10.9697801,74.3743216 L11.0003713,74.3838332 C11.0677235,74.2061982 11.3147672,73.5900029 11.6533276,72.7419309 C11.8682376,72.2023422 12.1129677,71.5974579 12.3746644,70.938589 M12.6895744,70.1074836 C13.9988289,66.7992574 14.6836618,64.9977149 14.7870037,64.5861468 L14.7913739,64.568409 L14.795487,64.5861468 C14.8985718,64.9990003 15.5826335,66.8072265 16.8911168,70.1092831 L16.8862325,70.1162239 C16.5024279,70.1337047 15.1674664,70.1686661 14.7913739,70.1686661 C14.4145101,70.1686661 13.0767209,70.1344759 12.6965153,70.116481 L12.6895744,70.1074836" id="Fill-14" fill="#FFFFFF"></path>
                        <path d="M61.2543559,74.0884604 C61.1888032,74.0884604 61.1235076,74.094373 61.0615538,74.1056841 C60.9368752,74.1272779 60.8260783,74.1722651 60.7299343,74.2365324 C60.632505,74.3020851 60.5504999,74.3887175 60.4864896,74.4936018 C60.4217081,74.6002856 60.3772351,74.7267638 60.3533276,74.8712368 C60.3312197,75.0175093 60.3335333,75.1514424 60.3628392,75.2717509 C60.3921451,75.3915453 60.4417595,75.4995144 60.5150243,75.5912882 C60.5867466,75.6825478 60.6787775,75.7583833 60.7903456,75.8141674 C60.9019137,75.872008 61.0291631,75.9121108 61.1692659,75.9339617 C61.2443302,75.9457869 61.3186233,75.9516995 61.388032,75.9516995 C61.4497286,75.9516995 61.5114253,75.9473293 61.5687518,75.9378178 C61.6921451,75.9185376 61.8031991,75.8763782 61.9003713,75.8105684 C61.9962582,75.7457869 62.0774921,75.6604399 62.1438161,75.5532419 C62.2085975,75.4481005 62.2525564,75.3205941 62.2751785,75.1761211 C62.2985718,75.0303628 62.295487,74.8961725 62.2664382,74.7761211 C62.2379035,74.6552985 62.1864896,74.5478435 62.1152813,74.4558126 C62.0425307,74.3655813 61.9499857,74.2884604 61.8379035,74.2280491 C61.7271065,74.1691802 61.6001143,74.1272779 61.4582119,74.10517 C61.3893173,74.094373 61.3206798,74.0884604 61.2543559,74.0884604" id="Fill-15" fill="#FFFFFF"></path>
                    </g>
                </g>
            </g>
        </g>
    </g>
</svg>