<?xml version="1.0" encoding="UTF-8" standalone="no"?>
<svg width="122px" height="122px" viewBox="0 0 122 122" version="1.1" xmlns="http://www.w3.org/2000/svg" xmlns:xlink="http://www.w3.org/1999/xlink">
    <!-- Generator: Sketch 40.3 (33839) - http://www.bohemiancoding.com/sketch -->
    <title>visual_design</title>
    <desc>Created with Sketch.</desc>
    <defs>
        <linearGradient x1="50%" y1="0%" x2="50%" y2="100%" id="linearGradient-1">
            <stop stop-color="#2F9BD7" offset="0%"></stop>
            <stop stop-color="#46B2EB" offset="100%"></stop>
        </linearGradient>
    </defs>
    <g id="Page-1" stroke="none" stroke-width="1" fill="none" fill-rule="evenodd">
        <g id="visual_design">
            <g id="Group-Copy-2" transform="translate(20.000000, 21.000000)">
                <path d="M19.8189453,71.2986006 C19.8189453,66.0070786 15.542336,61.7138546 10.2624138,61.7138546 C4.98249168,61.7138546 0.705882353,66.0070786 0.705882353,71.2986006 C0.705882353,76.5901226 4.98249168,80.8833466 10.2624138,80.8833466 C15.542336,80.8833466 19.8189453,76.5901226 19.8189453,71.2986006 Z M5.29411765,71.2986006 C5.29411765,68.5371169 7.52049518,66.3020899 10.2624138,66.3020899 C13.0043325,66.3020899 15.23071,68.5371169 15.23071,71.2986006 C15.23071,74.0600843 13.0043325,76.2951113 10.2624138,76.2951113 C7.52049518,76.2951113 5.29411765,74.0600843 5.29411765,71.2986006 Z" id="Oval-1-Copy-2" fill="#46B2EB"></path>
                <path d="M56.7418625,13.4596157 L10.736383,13.4596157" id="Line" stroke="#00D598" stroke-width="3.05882353" stroke-linecap="round" stroke-linejoin="round"></path>
                <ellipse id="Oval-3" fill="#00D598" cx="8.80993108" cy="13.4596157" rx="5.80993108" ry="5.83250268"></ellipse>
                <path d="M82.7598654,14.6650054 C82.7598654,6.95758163 76.53236,0.705882353 68.8458856,0.705882353 C61.1594111,0.705882353 54.9319058,6.95758163 54.9319058,14.6650054 C54.9319058,22.3724291 61.1594111,28.6241284 68.8458856,28.6241284 C76.53236,28.6241284 82.7598654,22.3724291 82.7598654,14.6650054 Z M59.520141,14.6650054 C59.520141,9.48761997 63.6974146,5.29411765 68.8458856,5.29411765 C73.9943565,5.29411765 78.1716301,9.48761997 78.1716301,14.6650054 C78.1716301,19.8423908 73.9943565,24.0358931 68.8458856,24.0358931 C63.6974146,24.0358931 59.520141,19.8423908 59.520141,14.6650054 Z" id="Oval-1-Copy" fill="#2F9BD7"></path>
                <path d="M10.7465748,64.0079722 C10.7465748,64.0079722 7.84160923,15.4037832 56.2577016,15.4037832" id="Path-1" stroke="url(#linearGradient-1)" stroke-width="4.58823529" stroke-linecap="round" stroke-linejoin="round"></path>
            </g>
        </g>
    </g>
</svg>