<?xml version="1.0" encoding="UTF-8" standalone="no"?>
<svg width="418px" height="418px" viewBox="0 0 418 418" version="1.1" xmlns="http://www.w3.org/2000/svg" xmlns:xlink="http://www.w3.org/1999/xlink">
    <!-- Generator: Sketch 3.6 (26304) - http://www.bohemiancoding.com/sketch -->
    <title>avatar copy</title>
    <desc>Created with Sketch.</desc>
    <defs></defs>
    <g id="Page-1" stroke="none" stroke-width="1" fill="none" fill-rule="evenodd">
        <g id="avatar-copy">
            <rect id="Rectangle-295" stroke="#F8F8F8" stroke-width="33" transform="translate(208.716775, 208.716775) rotate(-315.000000) translate(-208.716775, -208.716775) " x="61.1329906" y="61.1329906" width="295.167568" height="295.167568"></rect>
            <g id="Group-5" transform="translate(112.000000, 50.000000)">
                <g id="Page-1">
                    <path d="M52.4775,20.8018 C52.4775,29.8618 44.0355,38.3588 35.1005,38.7528 C25.3545,39.1828 16.5575,30.4858 16.5575,20.8018 C16.5575,9.6528 24.9515,5.4128 34.6135,3.2638 C44.2575,1.1178 52.4775,12.2348 52.4775,20.8018" id="Fill-1" fill="#E76350"></path>
                    <g id="Group-8" transform="translate(9.000000, 0.000000)">
                        <path d="M33.2119,10.9565 L36.4269,4.5765" id="Fill-5" fill="#FEFEFE"></path>
                        <path d="M33.2119,10.9565 L36.4269,4.5765" id="Stroke-7" stroke="#231815" stroke-width="5" stroke-linecap="round" stroke-linejoin="round"></path>
                    </g>
                    <g id="Group-12" transform="translate(9.000000, 0.000000)">
                        <path d="M39.877,22.4844 L47.079,21.4124" id="Fill-9" fill="#FEFEFE"></path>
                        <path d="M39.877,22.4844 L47.079,21.4124" id="Stroke-11" stroke="#231815" stroke-width="5" stroke-linecap="round" stroke-linejoin="round"></path>
                    </g>
                    <g id="Group-16" transform="translate(9.000000, 0.000000)">
                        <path d="M32.7119,34.3467 L34.8189,40.0567" id="Fill-13" fill="#FEFEFE"></path>
                        <path d="M32.7119,34.3467 L34.8189,40.0567" id="Stroke-15" stroke="#231815" stroke-width="5" stroke-linecap="round" stroke-linejoin="round"></path>
                    </g>
                    <g id="Group-20" transform="translate(9.000000, 0.000000)">
                        <path d="M18.3203,33.1929 L15.1153,38.3679" id="Fill-17" fill="#FEFEFE"></path>
                        <path d="M18.3203,33.1929 L15.1153,38.3679" id="Stroke-19" stroke="#231815" stroke-width="5" stroke-linecap="round" stroke-linejoin="round"></path>
                    </g>
                    <g id="Group-24" transform="translate(9.000000, 0.000000)">
                        <path d="M19.9688,10.0469 L16.6718,2.8409" id="Fill-21" fill="#FEFEFE"></path>
                        <path d="M19.9688,10.0469 L16.6718,2.8409" id="Stroke-23" stroke="#231815" stroke-width="5" stroke-linecap="round" stroke-linejoin="round"></path>
                    </g>
                    <g id="Group-28" transform="translate(9.000000, 0.000000)">
                        <path d="M11.7861,21.4126 L3.3281,22.2416" id="Fill-25" fill="#FEFEFE"></path>
                        <path d="M11.7861,21.4126 L3.3281,22.2416" id="Stroke-27" stroke="#231815" stroke-width="5" stroke-linecap="round" stroke-linejoin="round"></path>
                    </g>
                    <path d="M41.1885,144.6631 C41.1885,144.6631 33.1905,138.3781 29.6045,145.8581 C26.0185,153.3381 30.8425,183.8171 44.8745,171.5741 C44.8745,171.5741 40.0165,156.7831 41.1885,144.6631" id="Fill-29" fill="#FEFEFE"></path>
                    <path d="M41.1885,144.6631 C41.1885,144.6631 33.1905,138.3781 29.6045,145.8581 C26.0185,153.3381 30.8425,183.8171 44.8745,171.5741 C44.8745,171.5741 40.0165,156.7831 41.1885,144.6631 L41.1885,144.6631 Z" id="Stroke-31" stroke="#231815" stroke-width="7" stroke-linecap="round" stroke-linejoin="round"></path>
                    <path d="M40.4121,250.8159 C40.4121,250.8159 92.9311,209.8159 156.3861,245.8159" id="Stroke-33" stroke="#231815" stroke-width="7" stroke-linecap="round" stroke-linejoin="round"></path>
                    <path d="M41.1885,144.6729 C41.1885,144.6729 33.1905,138.3879 29.6045,145.8679 C26.0185,153.3479 30.8425,183.8269 44.8745,171.5839 C44.8745,171.5839 40.0165,156.7929 41.1885,144.6729" id="Fill-35" fill="#FEFEFE"></path>
                    <path d="M41.1885,144.6729 C41.1885,144.6729 33.1905,138.3879 29.6045,145.8679 C26.0185,153.3479 30.8425,183.8269 44.8745,171.5839 C44.8745,171.5839 40.0165,156.7929 41.1885,144.6729 L41.1885,144.6729 Z" id="Stroke-37" stroke="#231815" stroke-width="7" stroke-linecap="round" stroke-linejoin="round"></path>
                    <path d="M153.6299,151.5542 C153.6299,151.5542 156.7409,156.0962 153.8759,161.7652 C153.8759,161.7652 154.5099,157.3762 157.1309,157.2722" id="Stroke-39" stroke="#231815" stroke-linecap="round" stroke-linejoin="round"></path>
                    <path d="M34.9189,147.7495 C34.9189,147.7495 38.0299,152.2915 35.1649,157.9605 C35.1649,157.9605 35.7989,153.5715 38.4199,153.4675" id="Stroke-41" stroke="#231815" stroke-linecap="round" stroke-linejoin="round"></path>
                    <path d="M41.1885,144.6533 C41.1885,144.6533 33.1905,138.3683 29.6045,145.8483 C26.0185,153.3283 30.8425,183.8073 44.8745,171.5643 C44.8745,171.5643 40.0165,156.7733 41.1885,144.6533" id="Fill-43" fill="#FEFEFE"></path>
                    <path d="M41.1885,144.6533 C41.1885,144.6533 33.1905,138.3683 29.6045,145.8483 C26.0185,153.3283 30.8425,183.8073 44.8745,171.5643 C44.8745,171.5643 40.0165,156.7733 41.1885,144.6533 L41.1885,144.6533 Z" id="Stroke-45" stroke="#231815" stroke-width="7" stroke-linecap="round" stroke-linejoin="round"></path>
                    <path d="M41.1885,144.6143 C41.1885,144.6143 33.1905,138.3293 29.6045,145.8093 C26.0185,153.2893 30.8425,183.7683 44.8745,171.5253 C44.8745,171.5253 40.0165,156.7343 41.1885,144.6143" id="Fill-47" fill="#FEFEFE"></path>
                    <path d="M41.1885,144.6143 C41.1885,144.6143 33.1905,138.3293 29.6045,145.8093 C26.0185,153.2893 30.8425,183.7683 44.8745,171.5253 C44.8745,171.5253 40.0165,156.7343 41.1885,144.6143 L41.1885,144.6143 Z" id="Stroke-49" stroke="#231815" stroke-width="7" stroke-linecap="round" stroke-linejoin="round"></path>
                    <path d="M41.1885,144.624 C41.1885,144.624 33.1905,138.339 29.6045,145.819 C26.0185,153.299 30.8425,183.778 44.8745,171.535 C44.8745,171.535 40.0165,156.744 41.1885,144.624" id="Fill-51" fill="#FEFEFE"></path>
                    <path d="M41.1885,144.624 C41.1885,144.624 33.1905,138.339 29.6045,145.819 C26.0185,153.299 30.8425,183.778 44.8745,171.535 C44.8745,171.535 40.0165,156.744 41.1885,144.624 L41.1885,144.624 Z" id="Stroke-53" stroke="#231815" stroke-width="7" stroke-linecap="round" stroke-linejoin="round"></path>
                    <path d="M41.1885,144.6338 C41.1885,144.6338 33.1905,138.3488 29.6045,145.8288 C26.0185,153.3088 30.8425,183.7878 44.8745,171.5448 C44.8745,171.5448 40.0165,156.7538 41.1885,144.6338" id="Fill-55" fill="#FEFEFE"></path>
                    <path d="M115.3604,248.0547 C118.7454,245.7817 121.6724,243.2067 123.7564,239.6577 C125.3944,236.8717 121.0724,234.3567 119.4404,237.1347 C117.7954,239.9337 115.5074,241.9437 112.8374,243.7377 C110.1754,245.5247 112.6744,249.8577 115.3604,248.0547" id="Fill-129" fill="#4B7ABD" style="mix-blend-mode: multiply;"></path>
                    <path d="M121.0986,241.896 C126.2176,241.866 131.3556,241.474 136.4336,242.307 C139.5866,242.824 140.9396,238.006 137.7636,237.485 C132.2086,236.575 126.6996,236.863 121.0986,236.896 C117.8746,236.915 117.8726,241.915 121.0986,241.896" id="Fill-131" fill="#4B7ABD" style="mix-blend-mode: multiply;"></path>
                    <path d="M76.4336,236.4854 C70.1396,237.8864 63.7606,237.3174 57.8366,240.2374 C54.9446,241.6634 57.4796,245.9754 60.3606,244.5544 C65.7316,241.9074 72.0226,242.5854 77.7636,241.3064 C80.9106,240.6064 79.5756,235.7854 76.4336,236.4854" id="Fill-133" fill="#4B7ABD" style="mix-blend-mode: multiply;"></path>
                    <path d="M41.1885,144.6338 C41.1885,144.6338 33.1905,138.3488 29.6045,145.8288 C26.0185,153.3088 30.8425,183.7878 44.8745,171.5448 C44.8745,171.5448 40.0165,156.7538 41.1885,144.6338 L41.1885,144.6338 Z" id="Stroke-57" stroke="#231815" stroke-width="7" stroke-linecap="round" stroke-linejoin="round"></path>
                    <path d="M41.0986,141.896 C42.3826,161.831 46.2106,183.849 57.7676,200.567 C62.3466,207.19 67.6706,211.956 75.1816,214.907 C80.0946,216.837 88.3386,219.306 88.0976,225.931 C88.0096,228.344 86.5266,230.755 85.2826,232.761 C84.3076,234.331 82.1236,235.584 81.4376,237.246 C79.9456,240.862 90.6506,242.614 93.0506,242.97 C97.1856,243.584 101.5486,243.612 105.5806,242.393 C107.4876,241.817 110.0046,240.942 111.4226,239.466 C113.8386,236.952 112.6116,234.252 110.2656,232.563 C105.1806,228.901 107.0396,221.567 111.2706,218.637 C116.8686,214.761 123.4246,212.485 128.7376,208.154 C138.0116,200.591 143.9876,189.98 146.0996,178.228 C146.0996,178.228 158.7626,183.229 160.0956,166.896 C161.4286,150.563 171.7626,140.229 152.0956,141.896 L153.0956,134.229 C153.0956,134.229 159.7626,101.229 108.0956,102.229 C56.4286,103.229 38.4356,100.563 41.0986,141.896" id="Fill-59" fill="#FFFFFF"></path>
                    <path d="M41.0986,141.896 C42.3826,161.831 46.2106,183.849 57.7676,200.567 C62.3466,207.19 67.6706,211.956 75.1816,214.907 C80.0946,216.837 88.3386,219.306 88.0976,225.931 C88.0096,228.344 86.5266,230.755 85.2826,232.761 C84.3076,234.331 82.1236,235.584 81.4376,237.246 C79.9456,240.862 90.6506,242.614 93.0506,242.97 C97.1856,243.584 101.5486,243.612 105.5806,242.393 C107.4876,241.817 110.0046,240.942 111.4226,239.466 C113.8386,236.952 112.6116,234.252 110.2656,232.563 C105.1806,228.901 107.0396,221.567 111.2706,218.637 C116.8686,214.761 123.4246,212.485 128.7376,208.154 C138.0116,200.591 143.9876,189.98 146.0996,178.228 C146.0996,178.228 158.7626,183.229 160.0956,166.896 C161.4286,150.563 171.7626,140.229 152.0956,141.896 L153.0956,134.229 C153.0956,134.229 159.7626,101.229 108.0956,102.229 C56.4286,103.229 38.4356,100.563 41.0986,141.896 L41.0986,141.896 Z" id="Stroke-61" stroke="#231815" stroke-width="7" stroke-linecap="round" stroke-linejoin="round"></path>
                    <path d="M41.1885,144.6436 C41.1885,144.6436 33.1905,138.3586 29.6045,145.8386 C26.0185,153.3186 30.8425,183.7976 44.8745,171.5546 C44.8745,171.5546 40.0165,156.7636 41.1885,144.6436" id="Fill-63" fill="#FEFEFE"></path>
                    <path d="M41.1885,144.6436 C41.1885,144.6436 33.1905,138.3586 29.6045,145.8386 C26.0185,153.3186 30.8425,183.7976 44.8745,171.5546 C44.8745,171.5546 40.0165,156.7636 41.1885,144.6436 L41.1885,144.6436 Z" id="Stroke-65" stroke="#231815" stroke-width="7" stroke-linecap="round" stroke-linejoin="round"></path>
                    <path d="M74.3486,240.9155 C76.6846,246.5475 84.3106,248.8845 89.6856,249.7625 C100.5066,251.5305 115.7136,249.8735 120.8486,238.3955" id="Stroke-67" stroke="#231815" stroke-width="2" stroke-linecap="round" stroke-linejoin="round"></path>
                    <path d="M35.8779,147.8203 C35.8779,147.8203 33.0919,128.5033 52.4449,131.7183 C71.7999,134.9333 113.1549,138.6793 122.3749,119.9563 C122.3749,119.9563 145.0929,128.0123 145.9069,152.2433 C145.9069,152.2433 150.6159,159.1183 153.5579,149.4343 C156.4979,139.7493 159.7769,131.0623 159.7769,131.0623 C159.7769,131.0623 172.1969,90.6523 132.0919,73.5643 C91.9859,56.4763 50.3549,62.3983 33.5449,93.5023 C33.5449,93.5023 19.3979,123.5893 32.2289,150.5113 C32.2289,150.5113 33.8739,147.1643 35.8779,147.8203" id="Fill-69" fill="#FFFFFF"></path>
                    <path d="M35.8779,147.8203 C35.8779,147.8203 33.0919,128.5033 52.4449,131.7183 C71.7999,134.9333 113.1549,138.6793 122.3749,119.9563 C122.3749,119.9563 145.0929,128.0123 145.9069,152.2433 C145.9069,152.2433 150.6159,159.1183 153.5579,149.4343 C156.4979,139.7493 159.7769,131.0623 159.7769,131.0623 C159.7769,131.0623 172.1969,90.6523 132.0919,73.5643 C91.9859,56.4763 50.3549,62.3983 33.5449,93.5023 C33.5449,93.5023 19.3979,123.5893 32.2289,150.5113 C32.2289,150.5113 33.8739,147.1643 35.8779,147.8203 L35.8779,147.8203 Z" id="Stroke-71" stroke="#231815" stroke-width="7" stroke-linecap="round" stroke-linejoin="round"></path>
                    <path d="M111.9756,69.5146 C111.9756,69.5146 146.9186,91.4796 124.2746,121.3006" id="Stroke-73" stroke="#231815" stroke-width="4" stroke-linecap="round" stroke-linejoin="round"></path>
                    <path d="M18.8467,95.4077 C18.8467,95.4077 18.8477,47.5297 27.5977,42.1367 C36.3477,36.7437 65.8477,24.4937 65.8477,24.4937 C65.8477,24.4937 86.5977,23.2797 115.8477,42.1367 C115.8477,42.1367 50.0957,48.5717 18.8467,95.4077" id="Fill-75" fill="#FFFFFF"></path>
                    <path d="M18.8467,95.4077 C18.8467,95.4077 18.8477,47.5297 27.5977,42.1367 C36.3477,36.7437 65.8477,24.4937 65.8477,24.4937 C65.8477,24.4937 86.5977,23.2797 115.8477,42.1367 C115.8477,42.1367 50.0957,48.5717 18.8467,95.4077 L18.8467,95.4077 Z" id="Stroke-77" stroke="#231815" stroke-width="7" stroke-linecap="round" stroke-linejoin="round"></path>
                    <path d="M131.9092,75.5615 C131.9092,75.5615 163.3192,104.9115 143.7632,132.2275" id="Stroke-79" stroke="#231815" stroke-width="4" stroke-linecap="round" stroke-linejoin="round"></path>
                    <path d="M30.3486,117.9131 C30.3486,117.9131 74.3496,56.1731 135.6826,72.1741 C135.6826,65.0351 136.0196,54.0451 131.4396,48.0231 C128.4126,44.0431 121.1676,40.9871 116.6136,39.4471 C102.5516,34.6931 86.2356,39.7891 72.7886,44.3461 C59.4226,48.8751 46.9116,56.0331 36.7906,65.9301 C31.1526,71.4451 26.3106,77.7461 22.3876,84.5871 C18.2966,91.7211 13.8826,99.0301 14.8456,107.5551 C15.6056,114.2841 23.4526,120.4911 30.3486,117.9131" id="Fill-81" fill="#FFFFFF"></path>
                    <path d="M30.3486,117.9131 C30.3486,117.9131 74.3496,56.1731 135.6826,72.1741 C135.6826,65.0351 136.0196,54.0451 131.4396,48.0231 C128.4126,44.0431 121.1676,40.9871 116.6136,39.4471 C102.5516,34.6931 86.2356,39.7891 72.7886,44.3461 C59.4226,48.8751 46.9116,56.0331 36.7906,65.9301 C31.1526,71.4451 26.3106,77.7461 22.3876,84.5871 C18.2966,91.7211 13.8826,99.0301 14.8456,107.5551 C15.6056,114.2841 23.4526,120.4911 30.3486,117.9131 L30.3486,117.9131 Z" id="Stroke-83" stroke="#231815" stroke-width="7" stroke-linecap="round" stroke-linejoin="round"></path>
                    <g id="Group-88" transform="translate(85.000000, 73.000000)">
                        <path d="M12.6699,0.229 C12.6699,0.229 29.7669,26.562 0.7669,60.562" id="Fill-85" fill="#FEFEFE"></path>
                        <path d="M12.6699,0.229 C12.6699,0.229 29.7669,26.562 0.7669,60.562" id="Stroke-87" stroke="#231815" stroke-width="4" stroke-linecap="round" stroke-linejoin="round"></path>
                    </g>
                    <g id="Group-92" transform="translate(49.000000, 78.000000)">
                        <path d="M32.0996,0.0259 C32.0996,0.0259 42.4326,24.5599 0.0996,54.2279" id="Fill-89" fill="#FEFEFE"></path>
                        <path d="M32.0996,0.0259 C32.0996,0.0259 42.4326,24.5599 0.0996,54.2279" id="Stroke-91" stroke="#231815" stroke-width="4" stroke-linecap="round" stroke-linejoin="round"></path>
                    </g>
                    <g id="Group-96" transform="translate(42.000000, 97.000000)">
                        <path d="M10.4326,0.562 C10.4326,0.562 -1.1554,16.895 0.7656,36.562" id="Fill-93" fill="#FEFEFE"></path>
                        <path d="M10.4326,0.562 C10.4326,0.562 -1.1554,16.895 0.7656,36.562" id="Stroke-95" stroke="#231815" stroke-width="4" stroke-linecap="round" stroke-linejoin="round"></path>
                    </g>
                    <path d="M92.0986,161.396 C92.0986,170.785 84.4876,178.396 75.0986,178.396 C65.7096,178.396 58.0986,170.785 58.0986,161.396 C58.0986,152.007 65.7096,144.396 75.0986,144.396 C84.4876,144.396 92.0986,152.007 92.0986,161.396" id="Fill-97" fill="#FEFEFE"></path>
                    <path d="M92.0986,161.396 C92.0986,170.785 84.4876,178.396 75.0986,178.396 C65.7096,178.396 58.0986,170.785 58.0986,161.396 C58.0986,152.007 65.7096,144.396 75.0986,144.396 C84.4876,144.396 92.0986,152.007 92.0986,161.396 L92.0986,161.396 Z" id="Stroke-99" stroke="#231815" stroke-width="5" stroke-linecap="round" stroke-linejoin="round"></path>
                    <path d="M136.4189,161.396 C136.4189,170.785 128.8079,178.396 119.4189,178.396 C110.0299,178.396 102.4189,170.785 102.4189,161.396 C102.4189,152.007 110.0299,144.396 119.4189,144.396 C128.8079,144.396 136.4189,152.007 136.4189,161.396" id="Fill-101" fill="#FEFEFE"></path>
                    <path d="M136.4189,161.396 C136.4189,170.785 128.8079,178.396 119.4189,178.396 C110.0299,178.396 102.4189,170.785 102.4189,161.396 C102.4189,152.007 110.0299,144.396 119.4189,144.396 C128.8079,144.396 136.4189,152.007 136.4189,161.396 L136.4189,161.396 Z" id="Stroke-103" stroke="#231815" stroke-width="5" stroke-linecap="round" stroke-linejoin="round"></path>
                    <g id="Group-108" transform="translate(92.000000, 161.000000)">
                        <path d="M0.0986,0.396 L8.0986,0.396" id="Fill-105" fill="#FEFEFE"></path>
                        <path d="M0.0986,0.396 L8.0986,0.396" id="Stroke-107" stroke="#231815" stroke-width="5" stroke-linecap="round" stroke-linejoin="round"></path>
                    </g>
                    <path d="M67.6895,158.0181 C69.7825,155.1551 74.7075,153.9691 77.9555,154.9481 C81.0705,155.8881 82.1865,159.0671 81.6515,162.0561 C81.1185,165.0361 77.4085,166.1791 74.7515,165.6711 C71.8715,165.1211 70.7575,162.4931 70.6135,159.7991 C70.5535,158.7001 67.5895,160.5821 67.4455,158.7611 C67.4235,158.4911 67.5255,158.2441 67.6895,158.0181" id="Fill-109" fill="#231815"></path>
                    <path d="M112.4971,158.0181 C114.5901,155.1551 119.5151,153.9691 122.7631,154.9481 C125.8781,155.8881 126.9941,159.0671 126.4591,162.0561 C125.9261,165.0361 122.2161,166.1791 119.5591,165.6711 C116.6791,165.1211 115.5651,162.4931 115.4211,159.7991 C115.3611,158.7001 112.3971,160.5821 112.2531,158.7611 C112.2311,158.4911 112.3331,158.2441 112.4971,158.0181" id="Fill-111" fill="#231815"></path>
                    <path d="M59.6406,143.0937 C62.9726,141.6047 65.8426,139.4917 69.6206,140.2867 C71.9006,140.7667 74.1716,141.2877 76.4476,141.7877" id="Stroke-113" stroke="#231815" stroke-width="4" stroke-linecap="round" stroke-linejoin="round"></path>
                    <path d="M127.9521,139.9282 C124.3921,139.1202 121.1641,137.6112 117.6141,139.1312 C115.4731,140.0482 113.3481,141.0042 111.2151,141.9402" id="Stroke-115" stroke="#231815" stroke-width="4" stroke-linecap="round" stroke-linejoin="round"></path>
                    <path d="M58.0986,161.2666 L52.4326,161.2666 L40.8446,150.0166" id="Stroke-117" stroke="#231815" stroke-width="5" stroke-linecap="round" stroke-linejoin="round"></path>
                    <path d="M138.127,161.2666 L143.793,161.2666 L152.458,152.8536" id="Stroke-119" stroke="#231815" stroke-width="5" stroke-linecap="round" stroke-linejoin="round"></path>
                    <path d="M82.9111,195.0615 C82.9111,195.0615 87.1961,201.8415 113.8861,193.3885" id="Stroke-121" stroke="#060000" stroke-width="4" stroke-linecap="round" stroke-linejoin="round"></path>
                    <path d="M129.0986,59.396 C108.5626,58.55 88.2336,62.146 69.9996,71.863 C51.6646,81.634 37.4186,97.632 26.6226,115.111 C21.5246,123.365 34.5026,130.892 39.5746,122.681 C48.9356,107.527 60.8646,94.312 76.4506,85.433 C92.4486,76.319 110.9266,73.648 129.0986,74.396 C138.7746,74.794 138.7366,59.793 129.0986,59.396" id="Fill-123" fill="#CDCDCD" style="mix-blend-mode: multiply;"></path>
                    <path d="M91.7656,27.396 C77.3996,27.912 64.3186,32.895 52.8156,41.422 C41.5426,49.78 32.3136,60.358 22.4616,70.259 C15.6346,77.121 26.2406,87.729 33.0696,80.866 C49.8126,64.038 66.0256,43.32 91.7656,42.396 C101.4096,42.05 101.4436,27.049 91.7656,27.396" id="Fill-125" fill="#CDCDCD" style="mix-blend-mode: multiply;"></path>
                    <path d="M97.0977,200.729 C102.3687,200.765 107.6687,201.248 112.3597,198.388 C115.1077,196.712 112.5967,192.387 109.8357,194.07 C105.9937,196.413 101.4037,195.759 97.0977,195.729 C93.8717,195.707 93.8747,200.707 97.0977,200.729" id="Fill-127" fill="#CDCECE" style="mix-blend-mode: multiply;"></path>
                    <path d="M130.3311,154.6636 C133.5011,158.4776 133.8601,163.1896 132.1871,167.7316 C131.0711,170.7646 135.9051,172.0596 137.0101,169.0606 C139.3321,162.7506 138.1411,156.2716 133.8661,151.1286 C131.8041,148.6456 128.2861,152.2036 130.3311,154.6636" id="Fill-135" fill="#CDCECE" style="mix-blend-mode: multiply;"></path>
                    <path d="M84.9404,152.6577 C87.6434,156.9177 88.4684,161.4057 88.0984,166.3957 C87.8604,169.6147 92.8614,169.5917 93.0984,166.3957 C93.5294,160.5907 92.3934,155.0757 89.2564,150.1347 C87.5354,147.4207 83.2074,149.9267 84.9404,152.6577" id="Fill-137" fill="#CDCECE" style="mix-blend-mode: multiply;"></path>
                </g>
                <path d="M75.2556829,90.1688761 C75.2531444,90.2470734 75.2401465,90.4431612 75.20882,90.7491939 C75.1537086,91.2875829 75.0645486,91.9202415 74.9335072,92.6392626 C74.5532881,94.7255171 73.9116325,97.0636904 72.9461308,99.5914122 C70.1668971,106.867557 65.3401214,114.163532 57.9507855,120.999373 C55.8385799,122.953365 53.5387229,124.844877 51.0435687,126.667022 C50.0075355,127.42361 49.8181172,128.82889 50.620491,129.805804 C51.4228647,130.782718 52.913188,130.961327 53.9492212,130.204739 C56.5903763,128.275974 59.0297084,126.269751 61.274095,124.193479 C69.1881576,116.872215 74.3962447,108.999864 77.4107833,101.107682 C78.4731019,98.3264894 79.184286,95.7349566 79.6103566,93.3971158 C79.8715406,91.9640047 79.9791693,90.9125679 79.9988674,90.3057825 C80.0389609,89.0707295 79.0096651,88.0388737 77.6998708,88.001068 C76.3900766,87.9632624 75.2957764,88.9338231 75.2556829,90.1688761 L75.2556829,90.1688761 Z" id="Shape" fill="#CDCDCD" style="mix-blend-mode: multiply;"></path>
                <path d="M99.878882,90.1688761 C99.8772781,90.2470734 99.8690659,90.4431612 99.8492732,90.7491939 C99.8144529,91.2875829 99.7581201,91.9202415 99.675326,92.6392626 C99.4350973,94.7255171 99.0296885,97.0636904 98.4196685,99.5914122 C96.6637023,106.867557 93.6140649,114.163532 88.9453593,120.999373 C87.6108326,122.953365 86.1577446,124.844877 84.5812646,126.667022 C83.9266816,127.42361 83.8070039,128.82889 84.313957,129.805804 C84.8209102,130.782718 85.7625213,130.961327 86.4171043,130.204739 C88.0858301,128.275974 89.6270408,126.269751 91.0450817,124.193479 C96.0453184,116.872215 99.3358746,108.999864 101.24051,101.107682 C101.911701,98.3264894 102.361039,95.7349566 102.630237,93.3971158 C102.795258,91.9640047 102.863259,90.9125679 102.875705,90.3057825 C102.901037,89.0707295 102.250711,88.0388737 101.423161,88.001068 C100.595611,87.9632624 99.9042137,88.9338231 99.878882,90.1688761 L99.878882,90.1688761 Z" id="Shape-Copy" fill="#CDCDCD" style="mix-blend-mode: multiply;"></path>
                <path d="M129.878882,74.1688761 C129.877278,74.2470734 129.869066,74.4431612 129.849273,74.7491939 C129.814453,75.2875829 129.75812,75.9202415 129.675326,76.6392626 C129.435097,78.7255171 129.029689,81.0636904 128.419668,83.5914122 C126.663702,90.8675567 123.614065,98.163532 118.945359,104.999373 C117.610833,106.953365 116.157745,108.844877 114.581265,110.667022 C113.926682,111.42361 113.807004,112.82889 114.313957,113.805804 C114.82091,114.782718 115.762521,114.961327 116.417104,114.204739 C118.08583,112.275974 119.627041,110.269751 121.045082,108.193479 C126.045318,100.872215 129.335875,92.9998641 131.24051,85.107682 C131.911701,82.3264894 132.361039,79.7349566 132.630237,77.3971158 C132.795258,75.9640047 132.863259,74.9125679 132.875705,74.3057825 C132.901037,73.0707295 132.250711,72.0388737 131.423161,72.001068 C130.595611,71.9632624 129.904214,72.9338231 129.878882,74.1688761 L129.878882,74.1688761 Z" id="Shape-Copy-2" fill="#CDCDCD" style="mix-blend-mode: multiply;" transform="translate(123.438210, 93.336648) rotate(-38.000000) translate(-123.438210, -93.336648) "></path>
            </g>
        </g>
    </g>
</svg>