<?xml version="1.0" encoding="UTF-8" standalone="no"?>
<svg width="342px" height="342px" viewBox="0 0 342 342" version="1.1" xmlns="http://www.w3.org/2000/svg" xmlns:xlink="http://www.w3.org/1999/xlink">
    <!-- Generator: Sketch 40 (33762) - http://www.bohemiancoding.com/sketch -->
    <title>Group 14</title>
    <desc>Created with Sketch.</desc>
    <defs>
        <circle id="path-1" cx="171" cy="171" r="171"></circle>
        <mask id="mask-2" maskContentUnits="userSpaceOnUse" maskUnits="objectBoundingBox" x="0" y="0" width="342" height="342" fill="white">
            <use xlink:href="#path-1"></use>
        </mask>
        <mask id="mask-4" maskContentUnits="userSpaceOnUse" maskUnits="objectBoundingBox" x="0" y="0" width="342" height="342" fill="white">
            <use xlink:href="#path-1"></use>
        </mask>
    </defs>
    <g id="Page-1" stroke="none" stroke-width="1" fill="none" fill-rule="evenodd">
        <g id="Group-14">
            <mask id="mask-3" fill="white">
                <use xlink:href="#path-1"></use>
            </mask>
            <g id="Oval-2" stroke="#231916" mask="url(#mask-2)" stroke-width="18" fill="#FFFFFF">
                <use mask="url(#mask-4)" xlink:href="#path-1"></use>
            </g>
            <g id="avatar-copy-3" mask="url(#mask-3)">
                <g transform="translate(161.417459, 214.641118) rotate(-359.000000) translate(-161.417459, -214.641118) translate(65.917459, 46.641118)" id="Group-5">
                    <g transform="translate(0.322270, 0.299471)">
                        <g id="Page-1" transform="translate(0.000000, 0.000000)">
                            <path d="M57.6994783,19.8854993 C57.6994783,29.8453741 48.4174242,39.1863295 38.5933122,39.6194631 C27.8774984,40.0921724 18.2051186,30.5313522 18.2051186,19.8854993 C18.2051186,7.62913676 27.4343963,2.96800329 38.0578513,0.605556165 C48.6615152,-1.75359299 57.6994783,10.4675911 57.6994783,19.8854993" id="Fill-1" fill="#E76350"></path>
                            <g id="Group-8" transform="translate(46.346196, 1.771211)">
                                <path d="M0.066163896,7.29111434 L3.60108501,0.277427662" id="Fill-5" fill="#FEFEFE"></path>
                                <path d="M0.066163896,7.29111434 L3.60108501,0.277427662" id="Stroke-7" stroke="#231815" stroke-width="3.93258427" stroke-linecap="round" stroke-linejoin="round"></path>
                            </g>
                            <g id="Group-12" transform="translate(53.477838, 20.555436)">
                                <path d="M0.262858456,1.17978537 L8.18152156,0.00131011111" id="Fill-9" fill="#FEFEFE"></path>
                                <path d="M0.262858456,1.17978537 L8.18152156,0.00131011111" id="Stroke-11" stroke="#231815" stroke-width="3.93258427" stroke-linecap="round" stroke-linejoin="round"></path>
                            </g>
                            <g id="Group-16" transform="translate(45.553791, 34.254338)">
                                <path d="M0.308814136,0.521394177 L2.62547939,6.79853382" id="Fill-13" fill="#FEFEFE"></path>
                                <path d="M0.308814136,0.521394177 L2.62547939,6.79853382" id="Stroke-15" stroke="#231815" stroke-width="3.93258427" stroke-linecap="round" stroke-linejoin="round"></path>
                            </g>
                            <g id="Group-20" transform="translate(26.348543, 33.462066)">
                                <path d="M3.69037019,0.0452656105 L0.166444163,5.73426695" id="Fill-17" fill="#FEFEFE"></path>
                                <path d="M3.69037019,0.0452656105 L0.166444163,5.73426695" id="Stroke-19" stroke="#231815" stroke-width="3.93258427" stroke-linecap="round" stroke-linejoin="round"></path>
                            </g>
                            <g id="Group-24" transform="translate(28.120888, -0.000000)">
                                <path d="M3.73056546,8.06238032 L0.105484609,0.140652074" id="Fill-21" fill="#FEFEFE"></path>
                                <path d="M3.73056546,8.06238032 L0.105484609,0.140652074" id="Stroke-23" stroke="#231815" stroke-width="3.93258427" stroke-linecap="round" stroke-linejoin="round"></path>
                            </g>
                            <g id="Group-28" transform="translate(13.065199, 20.555436)">
                                <path d="M9.78930309,0.0015299759 L0.48965681,0.912869515" id="Fill-25" fill="#FEFEFE"></path>
                                <path d="M9.78930309,0.0015299759 L0.48965681,0.912869515" id="Stroke-27" stroke="#231815" stroke-width="3.93258427" stroke-linecap="round" stroke-linejoin="round"></path>
                            </g>
                            <path d="M45.2871224,156.04919 C45.2871224,156.04919 36.4932502,149.13994 32.5504113,157.362883 C28.6075723,165.585826 33.9116033,199.09212 49.3399122,185.633097 C49.3399122,185.633097 43.9984979,169.372997 45.2871224,156.04919" id="Fill-29" fill="#FEFEFE"></path>
                            <path d="M45.2871224,156.04919 C45.2871224,156.04919 36.4932502,149.13994 32.5504113,157.362883 C28.6075723,165.585826 33.9116033,199.09212 49.3399122,185.633097 C49.3399122,185.633097 43.9984979,169.372997 45.2871224,156.04919 L45.2871224,156.04919 Z" id="Stroke-31" stroke="#231815" stroke-width="5.50561798" stroke-linecap="round" stroke-linejoin="round"></path>
                            <path d="M40.4943917,279.006314 C40.4943917,279.006314 111.475484,212.111517 189.437548,279.006314" id="Stroke-33" stroke="#231815" stroke-width="5.50561798" stroke-linecap="round" stroke-linejoin="round"></path>
                            <path d="M45.2871224,156.059964 C45.2871224,156.059964 36.4932502,149.150713 32.5504113,157.373656 C28.6075723,165.596599 33.9116033,199.102893 49.3399122,185.64387 C49.3399122,185.64387 43.9984979,169.38377 45.2871224,156.059964" id="Fill-35" fill="#FEFEFE"></path>
                            <path d="M45.2871224,156.059964 C45.2871224,156.059964 36.4932502,149.150713 32.5504113,157.373656 C28.6075723,165.596599 33.9116033,199.102893 49.3399122,185.64387 C49.3399122,185.64387 43.9984979,169.38377 45.2871224,156.059964 L45.2871224,156.059964 Z" id="Stroke-37" stroke="#231815" stroke-width="5.50561798" stroke-linecap="round" stroke-linejoin="round"></path>
                            <path d="M168.917442,163.624742 C168.917442,163.624742 172.338015,168.617871 169.187922,174.849938 C169.187922,174.849938 169.88501,170.025006 172.766823,169.910676" id="Stroke-39" stroke="#231815" stroke-width="0.786516854" stroke-linecap="round" stroke-linejoin="round"></path>
                            <path d="M38.3936414,159.442144 C38.3936414,159.442144 41.8142136,164.435273 38.6641205,170.667341 C38.6641205,170.667341 39.3612092,165.842408 42.243022,165.728078" id="Stroke-41" stroke="#231815" stroke-width="0.786516854" stroke-linecap="round" stroke-linejoin="round"></path>
                            <path d="M45.2871224,156.038417 C45.2871224,156.038417 36.4932502,149.129166 32.5504113,157.352109 C28.6075723,165.575052 33.9116033,199.081346 49.3399122,185.622323 C49.3399122,185.622323 43.9984979,169.362223 45.2871224,156.038417" id="Fill-43" fill="#FEFEFE"></path>
                            <path d="M45.2871224,156.038417 C45.2871224,156.038417 36.4932502,149.129166 32.5504113,157.352109 C28.6075723,165.575052 33.9116033,199.081346 49.3399122,185.622323 C49.3399122,185.622323 43.9984979,169.362223 45.2871224,156.038417 L45.2871224,156.038417 Z" id="Stroke-45" stroke="#231815" stroke-width="5.50561798" stroke-linecap="round" stroke-linejoin="round"></path>
                            <path d="M45.2871224,155.995543 C45.2871224,155.995543 36.4932502,149.086293 32.5504113,157.309236 C28.6075723,165.532179 33.9116033,199.038473 49.3399122,185.57945 C49.3399122,185.57945 43.9984979,169.319349 45.2871224,155.995543" id="Fill-47" fill="#FEFEFE"></path>
                            <path d="M45.2871224,155.995543 C45.2871224,155.995543 36.4932502,149.086293 32.5504113,157.309236 C28.6075723,165.532179 33.9116033,199.038473 49.3399122,185.57945 C49.3399122,185.57945 43.9984979,169.319349 45.2871224,155.995543 L45.2871224,155.995543 Z" id="Stroke-49" stroke="#231815" stroke-width="5.50561798" stroke-linecap="round" stroke-linejoin="round"></path>
                            <path d="M45.2871224,156.006207 C45.2871224,156.006207 36.4932502,149.096956 32.5504113,157.319899 C28.6075723,165.542842 33.9116033,199.049136 49.3399122,185.590113 C49.3399122,185.590113 43.9984979,169.330013 45.2871224,156.006207" id="Fill-51" fill="#FEFEFE"></path>
                            <path d="M45.2871224,156.006207 C45.2871224,156.006207 36.4932502,149.096956 32.5504113,157.319899 C28.6075723,165.542842 33.9116033,199.049136 49.3399122,185.590113 C49.3399122,185.590113 43.9984979,169.330013 45.2871224,156.006207 L45.2871224,156.006207 Z" id="Stroke-53" stroke="#231815" stroke-width="5.50561798" stroke-linecap="round" stroke-linejoin="round"></path>
                            <path d="M45.2871224,156.01698 C45.2871224,156.01698 36.4932502,149.107729 32.5504113,157.330672 C28.6075723,165.553615 33.9116033,199.059909 49.3399122,185.600887 C49.3399122,185.600887 43.9984979,169.340786 45.2871224,156.01698" id="Fill-55" fill="#FEFEFE"></path>
                            <path d="M45.2871224,156.01698 C45.2871224,156.01698 36.4932502,149.107729 32.5504113,157.330672 C28.6075723,165.553615 33.9116033,199.059909 49.3399122,185.600887 C49.3399122,185.600887 43.9984979,169.340786 45.2871224,156.01698 L45.2871224,156.01698 Z" id="Stroke-57" stroke="#231815" stroke-width="5.50561798" stroke-linecap="round" stroke-linejoin="round"></path>
                            <path d="M45.1882765,153.007251 C46.6000459,174.922274 50.808966,199.127188 63.5159904,217.505686 C68.5506416,224.786508 74.404427,230.025886 82.6628384,233.269991 C88.0647256,235.391686 97.129077,238.105917 96.8640953,245.388938 C96.7673386,248.041606 95.1367669,250.692076 93.7689778,252.89732 C92.6969566,254.623259 90.2956292,256.000712 89.5413661,257.827788 C87.9008988,261.802943 99.6711416,263.728959 102.309963,264.120318 C106.856432,264.795303 111.65359,264.826084 116.086809,263.486008 C118.183573,262.852798 120.951037,261.890889 122.51014,260.268287 C125.166554,257.504587 123.817457,254.536412 121.238009,252.679654 C115.647006,248.65393 117.690993,240.591488 122.343015,237.370469 C128.498066,233.109489 135.706446,230.607428 141.548137,225.846256 C151.744983,217.532069 158.315648,205.867143 160.637811,192.947888 C160.637811,192.947888 174.560892,198.445607 176.026537,180.490349 C177.492183,162.535092 188.854508,151.174678 167.230466,153.007251 L168.329975,144.578735 C168.329975,144.578735 175.660401,108.301045 118.852074,109.400369 C62.043748,110.499693 42.2602843,107.568895 45.1882765,153.007251" id="Fill-59" fill="#FFFFFF"></path>
                            <path d="M45.1882765,153.007251 C46.6000459,174.922274 50.808966,199.127188 63.5159904,217.505686 C68.5506416,224.786508 74.404427,230.025886 82.6628384,233.269991 C88.0647256,235.391686 97.129077,238.105917 96.8640953,245.388938 C96.7673386,248.041606 95.1367669,250.692076 93.7689778,252.89732 C92.6969566,254.623259 90.2956292,256.000712 89.5413661,257.827788 C87.9008988,261.802943 99.6711416,263.728959 102.309963,264.120318 C106.856432,264.795303 111.65359,264.826084 116.086809,263.486008 C118.183573,262.852798 120.951037,261.890889 122.51014,260.268287 C125.166554,257.504587 123.817457,254.536412 121.238009,252.679654 C115.647006,248.65393 117.690993,240.591488 122.343015,237.370469 C128.498066,233.109489 135.706446,230.607428 141.548137,225.846256 C151.744983,217.532069 158.315648,205.867143 160.637811,192.947888 C160.637811,192.947888 174.560892,198.445607 176.026537,180.490349 C177.492183,162.535092 188.854508,151.174678 167.230466,153.007251 L168.329975,144.578735 C168.329975,144.578735 175.660401,108.301045 118.852074,109.400369 C62.043748,110.499693 42.2602843,107.568895 45.1882765,153.007251 L45.1882765,153.007251 Z" id="Stroke-61" stroke="#231815" stroke-width="5.50561798" stroke-linecap="round" stroke-linejoin="round"></path>
                            <path d="M45.2871224,156.027754 C45.2871224,156.027754 36.4932502,149.118503 32.5504113,157.341446 C28.6075723,165.564389 33.9116033,199.070683 49.3399122,185.61166 C49.3399122,185.61166 43.9984979,169.35156 45.2871224,156.027754" id="Fill-63" fill="#FEFEFE"></path>
                            <path d="M45.2871224,156.027754 C45.2871224,156.027754 36.4932502,149.118503 32.5504113,157.341446 C28.6075723,165.564389 33.9116033,199.070683 49.3399122,185.61166 C49.3399122,185.61166 43.9984979,169.35156 45.2871224,156.027754 L45.2871224,156.027754 Z" id="Stroke-65" stroke="#231815" stroke-width="5.50561798" stroke-linecap="round" stroke-linejoin="round"></path>
                            <path d="M81.7469475,261.861757 C84.3154003,268.05315 92.7002551,270.62227 98.6101155,271.587476 C110.507901,273.531081 127.228133,271.709501 132.874111,259.091461" id="Stroke-67" stroke="#231815" stroke-width="1.57303371" stroke-linecap="round" stroke-linejoin="round"></path>
                            <path d="M39.4480704,159.519976 C39.4480704,159.519976 36.3848386,138.284336 57.6636344,141.818662 C78.9446291,145.352988 124.41482,149.471056 134.552292,128.888414 C134.552292,128.888414 159.530935,137.744568 160.425935,164.382286 C160.425935,164.382286 165.603523,171.940138 168.838278,161.294285 C172.070834,150.647333 175.676124,141.097506 175.676124,141.097506 C175.676124,141.097506 189.332024,96.6738255 145.23622,77.8885782 C101.139316,59.1033308 55.3656608,65.6135272 36.8829161,99.8068987 C36.8829161,99.8068987 21.3281637,132.882258 35.4359624,162.478257 C35.4359624,162.478257 37.2446546,158.798819 39.4480704,159.519976" id="Fill-69" fill="#FFFFFF"></path>
                            <path d="M39.4480704,159.519976 C39.4480704,159.519976 36.3848386,138.284336 57.6636344,141.818662 C78.9446291,145.352988 124.41482,149.471056 134.552292,128.888414 C134.552292,128.888414 159.530935,137.744568 160.425935,164.382286 C160.425935,164.382286 165.603523,171.940138 168.838278,161.294285 C172.070834,150.647333 175.676124,141.097506 175.676124,141.097506 C175.676124,141.097506 189.332024,96.6738255 145.23622,77.8885782 C101.139316,59.1033308 55.3656608,65.6135272 36.8829161,99.8068987 C36.8829161,99.8068987 21.3281637,132.882258 35.4359624,162.478257 C35.4359624,162.478257 37.2446546,158.798819 39.4480704,159.519976 L39.4480704,159.519976 Z" id="Stroke-71" stroke="#231815" stroke-width="5.50561798" stroke-linecap="round" stroke-linejoin="round"></path>
                            <path d="M123.118169,73.436646 C123.118169,73.436646 161.538308,97.5832962 136.641029,130.366235" id="Stroke-73" stroke="#231815" stroke-width="3.14606742" stroke-linecap="round" stroke-linejoin="round"></path>
                            <path d="M20.7221144,101.901551 C20.7221144,101.901551 20.7232139,49.2681194 30.3439168,43.3394654 C39.9646197,37.4108114 72.4001323,23.9440933 72.4001323,23.9440933 C72.4001323,23.9440933 95.2149419,22.609514 127.375577,43.3394654 C127.375577,43.3394654 55.080668,50.4136149 20.7221144,101.901551" id="Fill-75" fill="#FFFFFF"></path>
                            <path d="M20.7221144,101.901551 C20.7221144,101.901551 20.7232139,49.2681194 30.3439168,43.3394654 C39.9646197,37.4108114 72.4001323,23.9440933 72.4001323,23.9440933 C72.4001323,23.9440933 95.2149419,22.609514 127.375577,43.3394654 C127.375577,43.3394654 55.080668,50.4136149 20.7221144,101.901551 L20.7221144,101.901551 Z" id="Stroke-77" stroke="#231815" stroke-width="5.50561798" stroke-linecap="round" stroke-linejoin="round"></path>
                            <path d="M145.03534,80.0841479 C145.03534,80.0841479 179.570914,112.349305 158.068918,142.378438" id="Stroke-79" stroke="#231815" stroke-width="3.14606742" stroke-linecap="round" stroke-linejoin="round"></path>
                            <path d="M33.3685558,126.642275 C33.3685558,126.642275 81.748047,58.7700158 149.184226,76.360298 C149.184226,68.5122245 149.554761,56.4306545 144.51901,49.8105258 C141.190797,45.4352165 133.224855,42.0756826 128.217691,40.3827238 C112.756397,35.1565378 94.8168098,40.7586925 80.0317136,45.7683117 C65.3356776,50.7471498 51.5797218,58.6161105 40.4515922,69.4961194 C34.252561,75.5588909 28.9287389,82.485731 24.6153655,90.006206 C20.1172746,97.8487829 15.2640423,105.883742 16.3228693,115.255478 C17.1584961,122.652829 25.7863424,129.476332 33.3685558,126.642275" id="Fill-81" fill="#FFFFFF"></path>
                            <path d="M33.3685558,126.642275 C33.3685558,126.642275 81.748047,58.7700158 149.184226,76.360298 C149.184226,68.5122245 149.554761,56.4306545 144.51901,49.8105258 C141.190797,45.4352165 133.224855,42.0756826 128.217691,40.3827238 C112.756397,35.1565378 94.8168098,40.7586925 80.0317136,45.7683117 C65.3356776,50.7471498 51.5797218,58.6161105 40.4515922,69.4961194 C34.252561,75.5588909 28.9287389,82.485731 24.6153655,90.006206 C20.1172746,97.8487829 15.2640423,105.883742 16.3228693,115.255478 C17.1584961,122.652829 25.7863424,129.476332 33.3685558,126.642275 L33.3685558,126.642275 Z" id="Stroke-83" stroke="#231815" stroke-width="5.50561798" stroke-linecap="round" stroke-linejoin="round"></path>
                            <g id="Group-88" transform="translate(93.890477, 77.036993)">
                                <path d="M13.4984471,0.482982283 C13.4984471,0.482982283 32.2967508,29.4314794 0.410992636,66.808493" id="Fill-85" fill="#FEFEFE"></path>
                                <path d="M13.4984471,0.482982283 C13.4984471,0.482982283 32.2967508,29.4314794 0.410992636,66.808493" id="Stroke-87" stroke="#231815" stroke-width="3.14606742" stroke-linecap="round" stroke-linejoin="round"></path>
                            </g>
                            <g id="Group-92" transform="translate(53.477838, 82.582892)">
                                <path d="M35.691894,0.210429554 C35.691894,0.210429554 47.0531194,27.1812429 0.507609137,59.7959853" id="Fill-89" fill="#FEFEFE"></path>
                                <path d="M35.691894,0.210429554 C35.691894,0.210429554 47.0531194,27.1812429 0.507609137,59.7959853" id="Stroke-91" stroke="#231815" stroke-width="3.14606742" stroke-linecap="round" stroke-linejoin="round"></path>
                            </g>
                            <g id="Group-96" transform="translate(46.346196, 103.974220)">
                                <path d="M11.3039145,0.295604414 C11.3039145,0.295604414 -1.43719462,18.2508622 0.674961974,39.8712659" id="Fill-93" fill="#FEFEFE"></path>
                                <path d="M11.3039145,0.295604414 C11.3039145,0.295604414 -1.43719462,18.2508622 0.674961974,39.8712659" id="Stroke-95" stroke="#231815" stroke-width="3.14606742" stroke-linecap="round" stroke-linejoin="round"></path>
                            </g>
                            <path d="M101.26323,174.444068 C101.26323,184.76562 92.8948682,193.132575 82.5715791,193.132575 C72.2482901,193.132575 63.8799278,184.76562 63.8799278,174.444068 C63.8799278,164.122515 72.2482901,155.755561 82.5715791,155.755561 C92.8948682,155.755561 101.26323,164.122515 101.26323,174.444068" id="Fill-97" fill="#FEFEFE"></path>
                            <path d="M101.26323,174.444068 C101.26323,184.76562 92.8948682,193.132575 82.5715791,193.132575 C72.2482901,193.132575 63.8799278,184.76562 63.8799278,174.444068 C63.8799278,164.122515 72.2482901,155.755561 82.5715791,155.755561 C92.8948682,155.755561 101.26323,164.122515 101.26323,174.444068 L101.26323,174.444068 Z" id="Stroke-99" stroke="#231815" stroke-width="3.93258427" stroke-linecap="round" stroke-linejoin="round"></path>
                            <path d="M149.993795,174.444068 C149.993795,184.76562 141.625433,193.132575 131.302143,193.132575 C120.978854,193.132575 112.610492,184.76562 112.610492,174.444068 C112.610492,164.122515 120.978854,155.755561 131.302143,155.755561 C141.625433,155.755561 149.993795,164.122515 149.993795,174.444068" id="Fill-101" fill="#FEFEFE"></path>
                            <path d="M149.993795,174.444068 C149.993795,184.76562 141.625433,193.132575 131.302143,193.132575 C120.978854,193.132575 112.610492,184.76562 112.610492,174.444068 C112.610492,164.122515 120.978854,155.755561 131.302143,155.755561 C141.625433,155.755561 149.993795,164.122515 149.993795,174.444068 L149.993795,174.444068 Z" id="Stroke-103" stroke="#231815" stroke-width="3.93258427" stroke-linecap="round" stroke-linejoin="round"></path>
                            <g id="Group-108" transform="translate(101.022120, 174.299705)">
                                <path d="M0.241110928,0.14436324 L9.03718213,0.14436324" id="Fill-105" fill="#FEFEFE"></path>
                                <path d="M0.241110928,0.14436324 L9.03718213,0.14436324" id="Stroke-107" stroke="#231815" stroke-width="3.93258427" stroke-linecap="round" stroke-linejoin="round"></path>
                            </g>
                            <path d="M74.4252077,170.730662 C76.7264799,167.583297 82.1415612,166.279499 85.7127661,167.355737 C89.1377363,168.389102 90.3647883,171.883852 89.776551,175.169732 C89.1905128,178.445717 85.1113348,179.702244 82.1899396,179.143788 C79.023354,178.539159 77.7985011,175.650136 77.6401718,172.688557 C77.5742012,171.4804 74.3152569,173.549328 74.1569276,171.547459 C74.1327384,171.250642 74.2448883,170.979109 74.4252077,170.730662" id="Fill-109" fill="#231815"></path>
                            <path d="M123.691563,170.730662 C125.992835,167.583297 131.407916,166.279499 134.979121,167.355737 C138.404091,168.389102 139.631143,171.883852 139.042906,175.169732 C138.456868,178.445717 134.37769,179.702244 131.456295,179.143788 C128.289709,178.539159 127.064856,175.650136 126.906527,172.688557 C126.840556,171.4804 123.581612,173.549328 123.423283,171.547459 C123.399093,171.250642 123.511243,170.979109 123.691563,170.730662" id="Fill-111" fill="#231815"></path>
                            <path d="M65.5753706,154.323911 C69.2389342,152.687018 72.3945248,150.364147 76.5484694,151.238109 C79.0553497,151.765785 81.5523344,152.338532 84.0548167,152.888194" id="Stroke-113" stroke="#231815" stroke-width="3.14606742" stroke-linecap="round" stroke-linejoin="round"></path>
                            <path d="M140.684473,150.844002 C136.770221,149.955748 133.221006,148.296868 129.31775,149.96784 C126.963701,150.97592 124.627245,152.026874 122.281992,153.055841" id="Stroke-115" stroke="#231815" stroke-width="3.14606742" stroke-linecap="round" stroke-linejoin="round"></path>
                            <polyline id="Stroke-117" stroke="#231815" stroke-width="3.93258427" stroke-linecap="round" stroke-linejoin="round" points="63.8799278 174.301815 57.6501104 174.301815 44.9090013 161.934421"></polyline>
                            <polyline id="Stroke-119" stroke="#231815" stroke-width="3.93258427" stroke-linecap="round" stroke-linejoin="round" points="151.871866 174.301815 158.101683 174.301815 167.628928 165.053203"></polyline>
                            <path d="M91.1614924,211.453358 C91.1614924,211.453358 95.8728881,218.906774 125.218781,209.614189" id="Stroke-121" stroke="#060000" stroke-width="3.14606742" stroke-linecap="round" stroke-linejoin="round"></path>
                            <path d="M141.94506,62.3130269 C119.365545,61.3829989 97.0136286,65.3361677 76.9651833,76.0182984 C56.8056876,86.7597925 41.1420838,104.346777 29.2717857,123.56186 C23.6664893,132.635679 37.9359158,140.910291 43.5126249,131.883742 C53.8051278,115.224587 66.9211694,100.697021 84.0581152,90.9361241 C101.648059,80.9168858 121.964784,77.9805916 141.94506,78.8028859 C152.583908,79.2404168 152.542127,62.7494585 141.94506,62.3130269" id="Fill-123" fill="#CDCDCD" style="mix-blend-mode: multiply;"></path>
                            <path d="M100.897094,27.1346611 C85.1015491,27.7019123 70.7188732,33.1798434 58.0712223,42.5537786 C45.6764585,51.741928 35.5290908,63.3705765 24.6967291,74.2549828 C17.1903819,81.7985436 28.8517733,93.4601719 36.3603195,85.9155117 C54.7693971,67.4160886 72.5957349,44.6402954 100.897094,43.6245201 C111.500758,43.244154 111.538141,26.7531957 100.897094,27.1346611" id="Fill-125" fill="#CDCDCD" style="mix-blend-mode: multiply;"></path>
                            <path d="M106.759785,217.683776 C112.555297,217.723352 118.382694,218.254325 123.54049,215.110259 C126.561941,213.267792 123.801074,208.513216 120.76533,210.363378 C116.541017,212.939094 111.494271,212.220136 106.759785,212.187156 C103.21277,212.162971 103.216068,217.659591 106.759785,217.683776" id="Fill-127" fill="#CDCECE" style="mix-blend-mode: multiply;"></path>
                            <path d="M126.839787,269.710051 C130.561624,267.211287 133.779887,264.380528 136.071263,260.479028 C137.872259,257.416311 133.120181,254.651511 131.325783,257.705433 C129.517091,260.782441 127.001414,262.992082 124.065726,264.964269 C121.138833,266.928761 123.886506,271.692132 126.839787,269.710051" id="Fill-129" fill="#4B7ABD" style="mix-blend-mode: multiply;"></path>
                            <path d="M133.148989,262.939644 C138.777375,262.906665 144.426651,262.47573 150.009958,263.391466 C153.476709,263.959817 154.964345,258.663274 151.472304,258.090526 C145.364532,257.090142 139.307338,257.406747 133.148989,257.443025 C129.604172,257.463912 129.601973,262.960531 133.148989,262.939644" id="Fill-131" fill="#4B7ABD" style="mix-blend-mode: multiply;"></path>
                            <path d="M84.0394235,256.991642 C77.1191145,258.531795 70.1053472,257.90628 63.5918565,261.116306 C60.4120768,262.683942 63.1993318,267.424226 66.367017,265.862087 C72.2724793,262.952177 79.1894898,263.697518 85.5017704,262.291483 C88.9619249,261.521956 87.4940805,256.222115 84.0394235,256.991642" id="Fill-133" fill="#4B7ABD" style="mix-blend-mode: multiply;"></path>
                            <path d="M143.300205,167.042979 C146.785648,171.235801 147.180371,176.415815 145.340893,181.408945 C144.113841,184.743194 149.428867,186.166819 150.643824,182.869946 C153.196884,175.933212 151.887369,168.810692 147.186968,163.156869 C144.919781,160.427248 141.051709,164.338643 143.300205,167.042979" id="Fill-135" fill="#CDCECE" style="mix-blend-mode: multiply;"></path>
                            <path d="M93.3927258,164.837846 C96.3646984,169.520966 97.2717932,174.454731 96.864975,179.940358 C96.6032918,183.479081 102.101936,183.453797 102.362519,179.940358 C102.836408,173.558782 101.587366,167.496011 98.1382063,162.064251 C96.2459514,159.080686 91.4872769,161.835592 93.3927258,164.837846" id="Fill-137" fill="#CDCECE" style="mix-blend-mode: multiply;"></path>
                        </g>
                        <path d="M82.7442932,96.1423861 C82.741502,96.2283502 82.7272108,96.4439142 82.692767,96.7803433 C82.6321716,97.3722071 82.5341393,98.0677039 82.3900582,98.858141 C81.9720039,101.151611 81.2664978,103.72202 80.2049201,106.500805 C77.1491279,114.499645 71.8420451,122.520285 63.7174045,130.035089 C61.3950156,132.183159 58.8663024,134.262544 56.1228581,136.265671 C54.9837304,137.097406 54.7754633,138.642265 55.6576804,139.716209 C56.5398975,140.790154 58.1785212,140.986504 59.3176489,140.154769 C62.2216224,138.03443 64.9036899,135.828942 67.3714129,133.546446 C76.0729951,125.498006 81.7993332,116.843742 85.1138452,108.167677 C86.2818741,105.110246 87.0638273,102.261312 87.5322957,99.6912672 C87.8194698,98.1158138 87.9378085,96.9599442 87.9594667,96.2928905 C88.0035499,94.9351672 86.87183,93.8008234 85.4316996,93.7592627 C83.9915692,93.7177021 82.7883763,94.7846627 82.7442932,96.1423861 L82.7442932,96.1423861 Z" id="Shape" fill="#CDCDCD" style="mix-blend-mode: multiply;"></path>
                        <path d="M109.81772,96.1423861 C109.815956,96.2283502 109.806927,96.4439142 109.785165,96.7803433 C109.746879,97.3722071 109.684941,98.0677039 109.593908,98.858141 C109.329774,101.15161 108.884024,103.72202 108.213302,106.500805 C106.282601,114.499645 102.929498,122.520285 97.7962143,130.035089 C96.3288902,132.183159 94.7312071,134.262544 92.9978533,136.265671 C92.2781334,137.097406 92.1465467,138.642265 92.7039462,139.716209 C93.2613457,140.790154 94.2966555,140.986504 95.0163754,140.154769 C96.8511542,138.03443 98.5457292,135.828942 100.104878,133.546446 C105.602682,125.498006 109.220678,116.843742 111.314842,108.167677 C112.052822,105.110246 112.546873,102.261312 112.84286,99.6912672 C113.024301,98.1158138 113.099069,96.9599442 113.112753,96.2928905 C113.140606,94.9351672 112.425566,93.8008234 111.515668,93.7592627 C110.60577,93.7177021 109.845572,94.7846627 109.81772,96.1423861 L109.81772,96.1423861 Z" id="Shape-Copy" fill="#CDCDCD" style="mix-blend-mode: multiply;"></path>
                        <path d="M142.802987,78.5532032 C142.801223,78.6391673 142.792194,78.8547313 142.770432,79.1911604 C142.732146,79.7830243 142.670208,80.478521 142.579175,81.2689581 C142.315042,83.5624276 141.869291,86.1328375 141.198569,88.9116226 C139.267868,96.9104624 135.914765,104.931103 130.781481,112.445906 C129.314157,114.593977 127.716474,116.673361 125.98312,118.676488 C125.2634,119.508223 125.131814,121.053082 125.689213,122.127026 C126.246613,123.200971 127.281923,123.397321 128.001642,122.565586 C129.836421,120.445247 131.530996,118.239759 133.090145,115.957263 C138.587949,107.908823 142.205945,99.2545589 144.300109,90.5784942 C145.038089,87.5210627 145.53214,84.6721287 145.828127,82.1020843 C146.009568,80.5266309 146.084336,79.3707613 146.09802,78.7037076 C146.125873,77.3459843 145.410833,76.2116405 144.500935,76.1700798 C143.591037,76.1285192 142.830839,77.1954799 142.802987,78.5532032 L142.802987,78.5532032 Z" id="Shape-Copy-2" fill="#CDCDCD" style="mix-blend-mode: multiply;" transform="translate(135.721411, 99.624793) rotate(-38.000000) translate(-135.721411, -99.624793) "></path>
                    </g>
                </g>
            </g>
        </g>
    </g>
</svg>