<?xml version="1.0" encoding="UTF-8" standalone="no"?>
<svg width="204px" height="252px" viewBox="0 0 204 252" version="1.1" xmlns="http://www.w3.org/2000/svg" xmlns:xlink="http://www.w3.org/1999/xlink">
    <!-- Generator: Sketch 40.1 (33804) - http://www.bohemiancoding.com/sketch -->
    <title>Group 14 Copy 3</title>
    <desc>Created with Sketch.</desc>
    <defs>
        <circle id="path-1" cx="102" cy="149" r="102"></circle>
        <mask id="mask-2" maskContentUnits="userSpaceOnUse" maskUnits="objectBoundingBox" x="0" y="0" width="204" height="204" fill="white">
            <use xlink:href="#path-1"></use>
        </mask>
    </defs>
    <g id="Page-1" stroke="none" stroke-width="1" fill="none" fill-rule="evenodd">
        <g id="Group-14-Copy-3" transform="translate(0.000000, 1.000000)">
            <use id="Oval-2" stroke="#231916" mask="url(#mask-2)" stroke-width="14.4" fill="#FFFFFF" xlink:href="#path-1"></use>
            <g id="avatar-copy-3" transform="translate(90.532740, 135.753541) rotate(-359.000000) translate(-90.532740, -135.753541) translate(17.532740, 1.253541)">
                <g id="Group-5" transform="translate(0.257816, 0.239577)">
                    <g id="Page-1" transform="translate(0.000000, 0.000000)">
                        <path d="M46.1595827,15.9083994 C46.1595827,23.8762993 38.7339394,31.3490636 30.8746497,31.6955705 C22.3019987,32.073738 14.5640949,24.4250818 14.5640949,15.9083994 C14.5640949,6.10330941 21.9475171,2.37440263 30.4462811,0.484444932 C38.9292121,-1.40287439 46.1595827,8.37407292 46.1595827,15.9083994" id="Fill-1" fill="#EA4F4C"></path>
                        <g id="Group-8" transform="translate(37.076957, 1.416969)">
                            <path d="M0.0529311168,5.83289147 L2.88086801,0.221942129" id="Fill-5" fill="#FEFEFE"></path>
                            <path d="M0.0529311168,5.83289147 L2.88086801,0.221942129" id="Stroke-7" stroke="#231815" stroke-width="3.14606742" stroke-linecap="round" stroke-linejoin="round"></path>
                        </g>
                        <g id="Group-12" transform="translate(42.782270, 16.444349)">
                            <path d="M0.210286764,0.943828292 L6.54521725,0.00104808889" id="Fill-9" fill="#FEFEFE"></path>
                            <path d="M0.210286764,0.943828292 L6.54521725,0.00104808889" id="Stroke-11" stroke="#231815" stroke-width="3.14606742" stroke-linecap="round" stroke-linejoin="round"></path>
                        </g>
                        <g id="Group-16" transform="translate(36.443033, 27.403470)">
                            <path d="M0.247051309,0.417115342 L2.10038351,5.43882706" id="Fill-13" fill="#FEFEFE"></path>
                            <path d="M0.247051309,0.417115342 L2.10038351,5.43882706" id="Stroke-15" stroke="#231815" stroke-width="3.14606742" stroke-linecap="round" stroke-linejoin="round"></path>
                        </g>
                        <g id="Group-20" transform="translate(21.078834, 26.769653)">
                            <path d="M2.95229615,0.0362124884 L0.13315533,4.58741356" id="Fill-17" fill="#FEFEFE"></path>
                            <path d="M2.95229615,0.0362124884 L0.13315533,4.58741356" id="Stroke-19" stroke="#231815" stroke-width="3.14606742" stroke-linecap="round" stroke-linejoin="round"></path>
                        </g>
                        <g id="Group-24" transform="translate(22.496710, -0.000000)">
                            <path d="M2.98445236,6.44990426 L0.0843876873,0.11252166" id="Fill-21" fill="#FEFEFE"></path>
                            <path d="M2.98445236,6.44990426 L0.0843876873,0.11252166" id="Stroke-23" stroke="#231815" stroke-width="3.14606742" stroke-linecap="round" stroke-linejoin="round"></path>
                        </g>
                        <g id="Group-28" transform="translate(10.452159, 16.444349)">
                            <path d="M7.83144248,0.00122398072 L0.391725448,0.730295612" id="Fill-25" fill="#FEFEFE"></path>
                            <path d="M7.83144248,0.00122398072 L0.391725448,0.730295612" id="Stroke-27" stroke="#231815" stroke-width="3.14606742" stroke-linecap="round" stroke-linejoin="round"></path>
                        </g>
                        <path d="M36.2296979,124.839352 C36.2296979,124.839352 29.1946001,119.311952 26.040329,125.890306 C22.8860579,132.46866 27.1292826,159.273696 39.4719297,148.506477 C39.4719297,148.506477 35.1987983,135.498397 36.2296979,124.839352" id="Fill-29" fill="#FEFEFE"></path>
                        <path d="M36.2296979,124.839352 C36.2296979,124.839352 29.1946001,119.311952 26.040329,125.890306 C22.8860579,132.46866 27.1292826,159.273696 39.4719297,148.506477 C39.4719297,148.506477 35.1987983,135.498397 36.2296979,124.839352 L36.2296979,124.839352 Z" id="Stroke-31" stroke="#231815" stroke-width="4.40449438" stroke-linecap="round" stroke-linejoin="round"></path>
                        <path d="M32.4792849,228.00432 C32.4792849,228.00432 83.1639474,176.637309 139.143759,227.050522 C139.143759,227.050522 95.1539349,261.67288 34.8321881,231.034079" id="Stroke-33" stroke="#231815" stroke-width="4.40449438" stroke-linecap="round" stroke-linejoin="round" fill="#FFFFFF"></path>
                        <path d="M36.2296979,124.847971 C36.2296979,124.847971 29.1946001,119.32057 26.040329,125.898925 C22.8860579,132.477279 27.1292826,159.282314 39.4719297,148.515096 C39.4719297,148.515096 35.1987983,135.507016 36.2296979,124.847971" id="Fill-35" fill="#FEFEFE"></path>
                        <path d="M36.2296979,124.847971 C36.2296979,124.847971 29.1946001,119.32057 26.040329,125.898925 C22.8860579,132.477279 27.1292826,159.282314 39.4719297,148.515096 C39.4719297,148.515096 35.1987983,135.507016 36.2296979,124.847971 L36.2296979,124.847971 Z" id="Stroke-37" stroke="#231815" stroke-width="4.40449438" stroke-linecap="round" stroke-linejoin="round"></path>
                        <path d="M135.133954,130.899793 C135.133954,130.899793 137.870412,134.894297 135.350337,139.879951 C135.350337,139.879951 135.908008,136.020004 138.213459,135.928541" id="Stroke-39" stroke="#231815" stroke-width="0.629213483" stroke-linecap="round" stroke-linejoin="round"></path>
                        <path d="M30.7149131,127.553715 C30.7149131,127.553715 33.4513708,131.548219 30.9312964,136.533872 C30.9312964,136.533872 31.4889674,132.673926 33.7944176,132.582462" id="Stroke-41" stroke="#231815" stroke-width="0.629213483" stroke-linecap="round" stroke-linejoin="round"></path>
                        <path d="M36.2296979,124.830734 C36.2296979,124.830734 29.1946001,119.303333 26.040329,125.881687 C22.8860579,132.460042 27.1292826,159.265077 39.4719297,148.497859 C39.4719297,148.497859 35.1987983,135.489779 36.2296979,124.830734" id="Fill-43" fill="#FEFEFE"></path>
                        <path d="M36.2296979,124.830734 C36.2296979,124.830734 29.1946001,119.303333 26.040329,125.881687 C22.8860579,132.460042 27.1292826,159.265077 39.4719297,148.497859 C39.4719297,148.497859 35.1987983,135.489779 36.2296979,124.830734 L36.2296979,124.830734 Z" id="Stroke-45" stroke="#231815" stroke-width="4.40449438" stroke-linecap="round" stroke-linejoin="round"></path>
                        <path d="M36.2296979,124.796435 C36.2296979,124.796435 29.1946001,119.269034 26.040329,125.847388 C22.8860579,132.425743 27.1292826,159.230778 39.4719297,148.46356 C39.4719297,148.46356 35.1987983,135.45548 36.2296979,124.796435" id="Fill-47" fill="#FEFEFE"></path>
                        <path d="M36.2296979,124.796435 C36.2296979,124.796435 29.1946001,119.269034 26.040329,125.847388 C22.8860579,132.425743 27.1292826,159.230778 39.4719297,148.46356 C39.4719297,148.46356 35.1987983,135.45548 36.2296979,124.796435 L36.2296979,124.796435 Z" id="Stroke-49" stroke="#231815" stroke-width="4.40449438" stroke-linecap="round" stroke-linejoin="round"></path>
                        <path d="M36.2296979,124.804966 C36.2296979,124.804966 29.1946001,119.277565 26.040329,125.855919 C22.8860579,132.434274 27.1292826,159.239309 39.4719297,148.472091 C39.4719297,148.472091 35.1987983,135.46401 36.2296979,124.804966" id="Fill-51" fill="#FEFEFE"></path>
                        <path d="M36.2296979,124.804966 C36.2296979,124.804966 29.1946001,119.277565 26.040329,125.855919 C22.8860579,132.434274 27.1292826,159.239309 39.4719297,148.472091 C39.4719297,148.472091 35.1987983,135.46401 36.2296979,124.804966 L36.2296979,124.804966 Z" id="Stroke-53" stroke="#231815" stroke-width="4.40449438" stroke-linecap="round" stroke-linejoin="round"></path>
                        <path d="M36.2296979,124.813584 C36.2296979,124.813584 29.1946001,119.286183 26.040329,125.864538 C22.8860579,132.442892 27.1292826,159.247928 39.4719297,148.480709 C39.4719297,148.480709 35.1987983,135.472629 36.2296979,124.813584" id="Fill-55" fill="#FEFEFE"></path>
                        <path d="M36.2296979,124.813584 C36.2296979,124.813584 29.1946001,119.286183 26.040329,125.864538 C22.8860579,132.442892 27.1292826,159.247928 39.4719297,148.480709 C39.4719297,148.480709 35.1987983,135.472629 36.2296979,124.813584 L36.2296979,124.813584 Z" id="Stroke-57" stroke="#231815" stroke-width="4.40449438" stroke-linecap="round" stroke-linejoin="round"></path>
                        <path d="M36.1506212,122.405801 C37.2800368,139.937819 40.6471728,159.30175 50.8127923,174.004548 C54.8405133,179.829206 59.5235416,184.020709 66.1302707,186.615993 C70.4517805,188.313349 77.7032616,190.484733 77.4912763,196.31115 C77.4138709,198.433285 76.1094135,200.553661 75.0151822,202.317856 C74.1575653,203.698607 72.2365033,204.800569 71.6330929,206.26223 C70.320719,209.442355 79.7369133,210.983167 81.8479703,211.296255 C85.4851458,211.836242 89.3228717,211.860867 92.8694476,210.788807 C94.5468583,210.282238 96.7608295,209.512711 98.0081124,208.21463 C100.133243,206.003669 99.0539652,203.62913 96.9904069,202.143723 C92.5176047,198.923144 94.1527944,192.47319 97.8744121,189.896375 C102.798453,186.487592 108.565157,184.485943 113.23851,180.677005 C121.395986,174.025655 126.652518,164.693714 128.510248,154.358311 C128.510248,154.358311 139.648713,158.756486 140.82123,144.39228 C141.993746,130.028073 151.083606,120.939743 133.784373,122.405801 L134.66398,115.662988 C134.66398,115.662988 140.528321,86.6408359 95.0816595,87.5202951 C49.6349984,88.3997542 33.8082274,86.0551161 36.1506212,122.405801" id="Fill-59" fill="#FFFFFF"></path>
                        <path d="M50.8127923,174.004548 C54.8405133,179.829206 59.5235416,184.020709 66.1302707,186.615993 C70.4517805,188.313349 77.7032616,190.484733 77.4912763,196.31115 C77.4138709,198.433285 76.1094135,200.553661 75.0151822,202.317856 C74.1575653,203.698607 72.2365033,204.800569 71.6330929,206.26223 C70.320719,209.442355 79.7369133,210.983167 81.8479703,211.296255 C85.4851458,211.836242 89.3228717,211.860867 92.8694476,210.788807 C94.5468583,210.282238 96.5564903,209.194671 98.0081124,208.21463 C101.676731,205.737817 99.0539652,203.62913 96.9904069,202.143723 C92.5176047,198.923144 94.1527944,192.47319 97.8744121,189.896375 C102.798453,186.487592 108.565157,184.485943 113.23851,180.677005 C121.395986,174.025655 126.652518,164.693714 128.510248,154.358311 C128.510248,154.358311 139.648713,158.756486 140.82123,144.39228 C141.993746,130.028073 151.083606,120.939743 133.784373,122.405801 L134.66398,115.662988 C134.66398,115.662988 140.528321,86.6408359 95.0816595,87.5202951 C49.6349984,88.3997542 33.8082274,86.0551161 36.1506212,122.405801 C37.2800368,139.937819 40.6471728,159.30175 50.8127923,174.004548 Z" id="Stroke-61" stroke="#231815" stroke-width="4.40449438" stroke-linecap="round" stroke-linejoin="round"></path>
                        <path d="M36.2296979,124.822203 C36.2296979,124.822203 29.1946001,119.294802 26.040329,125.873157 C22.8860579,132.451511 27.1292826,159.256546 39.4719297,148.489328 C39.4719297,148.489328 35.1987983,135.481248 36.2296979,124.822203" id="Fill-63" fill="#FEFEFE"></path>
                        <path d="M36.2296979,124.822203 C36.2296979,124.822203 29.1946001,119.294802 26.040329,125.873157 C22.8860579,132.451511 27.1292826,159.256546 39.4719297,148.489328 C39.4719297,148.489328 35.1987983,135.481248 36.2296979,124.822203 L36.2296979,124.822203 Z" id="Stroke-65" stroke="#231815" stroke-width="4.40449438" stroke-linecap="round" stroke-linejoin="round"></path>
                        <path d="M65.397558,209.489406 C67.4523202,214.44252 74.1602041,216.497816 78.8880924,217.269981 C88.406321,218.824865 101.782507,217.367601 106.299289,207.273169" id="Stroke-67" stroke="#231815" stroke-width="1.25842697" stroke-linecap="round" stroke-linejoin="round"></path>
                        <path d="M31.5584563,127.615981 C31.5584563,127.615981 29.1078709,110.627468 46.1309075,113.45493 C63.1557033,116.282391 99.5318558,119.576845 107.641833,103.110731 C107.641833,103.110731 127.624748,110.195654 128.340748,131.505829 C128.340748,131.505829 132.482818,137.55211 135.070622,129.035428 C137.656667,120.517866 140.540899,112.878004 140.540899,112.878004 C140.540899,112.878004 151.465619,77.3390604 116.188976,62.3108625 C80.9114526,47.2826647 44.2925286,52.4908217 29.5063329,79.845519 C29.5063329,79.845519 17.062531,106.305806 28.3487699,129.982605 C28.3487699,129.982605 29.7957236,127.039056 31.5584563,127.615981" id="Fill-69" fill="#FFFFFF"></path>
                        <path d="M31.5584563,127.615981 C31.5584563,127.615981 29.1078709,110.627468 46.1309075,113.45493 C63.1557033,116.282391 99.5318558,119.576845 107.641833,103.110731 C107.641833,103.110731 127.624748,110.195654 128.340748,131.505829 C128.340748,131.505829 132.482818,137.55211 135.070622,129.035428 C137.656667,120.517866 140.540899,112.878004 140.540899,112.878004 C140.540899,112.878004 151.465619,77.3390604 116.188976,62.3108625 C80.9114526,47.2826647 44.2925286,52.4908217 29.5063329,79.845519 C29.5063329,79.845519 17.062531,106.305806 28.3487699,129.982605 C28.3487699,129.982605 29.7957236,127.039056 31.5584563,127.615981 L31.5584563,127.615981 Z" id="Stroke-71" stroke="#231815" stroke-width="4.40449438" stroke-linecap="round" stroke-linejoin="round"></path>
                        <path d="M98.4945351,58.7493168 C98.4945351,58.7493168 129.230647,78.0666369 109.312823,104.292988" id="Stroke-73" stroke="#231815" stroke-width="2.51685393" stroke-linecap="round" stroke-linejoin="round"></path>
                        <path d="M16.5776915,81.5212404 C16.5776915,81.5212404 16.5785711,39.4144955 24.2751334,34.6715723 C31.9716957,29.9286492 57.9201058,19.1552746 57.9201058,19.1552746 C57.9201058,19.1552746 76.1719536,18.0876112 101.900462,34.6715723 C101.900462,34.6715723 44.0645344,40.3308919 16.5776915,81.5212404" id="Fill-75" fill="#FFFFFF"></path>
                        <path d="M16.5776915,81.5212404 C16.5776915,81.5212404 16.5785711,39.4144955 24.2751334,34.6715723 C31.9716957,29.9286492 57.9201058,19.1552746 57.9201058,19.1552746 C57.9201058,19.1552746 76.1719536,18.0876112 101.900462,34.6715723 C101.900462,34.6715723 44.0645344,40.3308919 16.5776915,81.5212404 L16.5776915,81.5212404 Z" id="Stroke-77" stroke="#231815" stroke-width="4.40449438" stroke-linecap="round" stroke-linejoin="round"></path>
                        <path d="M116.028272,64.0673183 C116.028272,64.0673183 143.656731,89.8794442 126.455134,113.90275" id="Stroke-79" stroke="#231815" stroke-width="2.51685393" stroke-linecap="round" stroke-linejoin="round"></path>
                        <path d="M26.6948447,101.31382 C26.6948447,101.31382 65.3984376,47.0160127 119.347381,61.0882384 C119.347381,54.8097796 119.643809,45.1445236 115.615208,39.8484206 C112.952637,36.3481732 106.579884,33.6605461 102.574153,32.306179 C90.2051176,28.1252302 75.8534478,32.606954 64.0253709,36.6146494 C52.2685421,40.5977198 41.2637774,46.8928884 32.3612737,55.5968955 C27.4020488,60.4471127 23.1429911,65.9885848 19.6922924,72.0049648 C16.0938196,78.2790263 12.2112338,84.7069932 13.0582955,92.2043824 C13.7267969,98.122263 20.629074,103.581066 26.6948447,101.31382" id="Fill-81" fill="#FFFFFF"></path>
                        <path d="M26.6948447,101.31382 C26.6948447,101.31382 65.3984376,47.0160127 119.347381,61.0882384 C119.347381,54.8097796 119.643809,45.1445236 115.615208,39.8484206 C112.952637,36.3481732 106.579884,33.6605461 102.574153,32.306179 C90.2051176,28.1252302 75.8534478,32.606954 64.0253709,36.6146494 C52.2685421,40.5977198 41.2637774,46.8928884 32.3612737,55.5968955 C27.4020488,60.4471127 23.1429911,65.9885848 19.6922924,72.0049648 C16.0938196,78.2790263 12.2112338,84.7069932 13.0582955,92.2043824 C13.7267969,98.122263 20.629074,103.581066 26.6948447,101.31382 L26.6948447,101.31382 Z" id="Stroke-83" stroke="#231815" stroke-width="4.40449438" stroke-linecap="round" stroke-linejoin="round"></path>
                        <g id="Group-88" transform="translate(75.112382, 61.629594)">
                            <path d="M10.7987577,0.386385826 C10.7987577,0.386385826 25.8374006,23.5451835 0.328794109,53.4467944" id="Fill-85" fill="#FEFEFE"></path>
                            <path d="M10.7987577,0.386385826 C10.7987577,0.386385826 25.8374006,23.5451835 0.328794109,53.4467944" id="Stroke-87" stroke="#231815" stroke-width="2.51685393" stroke-linecap="round" stroke-linejoin="round"></path>
                        </g>
                        <g id="Group-92" transform="translate(42.782270, 66.066314)">
                            <path d="M28.5535152,0.168343643 C28.5535152,0.168343643 37.6424956,21.7449943 0.406087309,47.8367882" id="Fill-89" fill="#FEFEFE"></path>
                            <path d="M28.5535152,0.168343643 C28.5535152,0.168343643 37.6424956,21.7449943 0.406087309,47.8367882" id="Stroke-91" stroke="#231815" stroke-width="2.51685393" stroke-linecap="round" stroke-linejoin="round"></path>
                        </g>
                        <g id="Group-96" transform="translate(37.076957, 83.179376)">
                            <path d="M9.04313162,0.236483531 C9.04313162,0.236483531 -1.1497557,14.6006897 0.53996958,31.8970127" id="Fill-93" fill="#FEFEFE"></path>
                            <path d="M9.04313162,0.236483531 C9.04313162,0.236483531 -1.1497557,14.6006897 0.53996958,31.8970127" id="Stroke-95" stroke="#231815" stroke-width="2.51685393" stroke-linecap="round" stroke-linejoin="round"></path>
                        </g>
                        <path d="M81.0105844,139.555254 C81.0105844,147.812496 74.3158946,154.50606 66.0572633,154.50606 C57.7986321,154.50606 51.1039423,147.812496 51.1039423,139.555254 C51.1039423,131.298012 57.7986321,124.604449 66.0572633,124.604449 C74.3158946,124.604449 81.0105844,131.298012 81.0105844,139.555254" id="Fill-97" fill="#FEFEFE"></path>
                        <path d="M81.0105844,139.555254 C81.0105844,147.812496 74.3158946,154.50606 66.0572633,154.50606 C57.7986321,154.50606 51.1039423,147.812496 51.1039423,139.555254 C51.1039423,131.298012 57.7986321,124.604449 66.0572633,124.604449 C74.3158946,124.604449 81.0105844,131.298012 81.0105844,139.555254 L81.0105844,139.555254 Z" id="Stroke-99" stroke="#231815" stroke-width="3.14606742" stroke-linecap="round" stroke-linejoin="round"></path>
                        <path d="M119.995036,139.555254 C119.995036,147.812496 113.300346,154.50606 105.041715,154.50606 C96.7830835,154.50606 90.0883937,147.812496 90.0883937,139.555254 C90.0883937,131.298012 96.7830835,124.604449 105.041715,124.604449 C113.300346,124.604449 119.995036,131.298012 119.995036,139.555254" id="Fill-101" fill="#FEFEFE"></path>
                        <path d="M119.995036,139.555254 C119.995036,147.812496 113.300346,154.50606 105.041715,154.50606 C96.7830835,154.50606 90.0883937,147.812496 90.0883937,139.555254 C90.0883937,131.298012 96.7830835,124.604449 105.041715,124.604449 C113.300346,124.604449 119.995036,131.298012 119.995036,139.555254 L119.995036,139.555254 Z" id="Stroke-103" stroke="#231815" stroke-width="3.14606742" stroke-linecap="round" stroke-linejoin="round"></path>
                        <g id="Group-108" transform="translate(80.817696, 139.439764)">
                            <path d="M0.192888742,0.115490592 L7.22974571,0.115490592" id="Fill-105" fill="#FEFEFE"></path>
                            <path d="M0.192888742,0.115490592 L7.22974571,0.115490592" id="Stroke-107" stroke="#231815" stroke-width="3.14606742" stroke-linecap="round" stroke-linejoin="round"></path>
                        </g>
                        <path d="M59.5401662,136.584529 C61.3811839,134.066638 65.713249,133.023599 68.5702129,133.88459 C71.3101891,134.711281 72.2918306,137.507082 71.8212408,140.135785 C71.3524102,142.756574 68.0890678,143.761795 65.7519517,143.31503 C63.2186832,142.831328 62.2388008,140.520109 62.1121374,138.150846 C62.059361,137.18432 59.4522055,138.839462 59.3255421,137.237967 C59.3061907,137.000513 59.3959106,136.783287 59.5401662,136.584529" id="Fill-109" fill="#231815"></path>
                        <path d="M98.9532502,136.584529 C100.794268,134.066638 105.126333,133.023599 107.983297,133.88459 C110.723273,134.711281 111.704915,137.507082 111.234325,140.135785 C110.765494,142.756574 107.502152,143.761795 105.165036,143.31503 C102.631767,142.831328 101.651885,140.520109 101.525221,138.150846 C101.472445,137.18432 98.8652895,138.839462 98.7386261,137.237967 C98.7192747,137.000513 98.8089947,136.783287 98.9532502,136.584529" id="Fill-111" fill="#231815"></path>
                        <path d="M52.4602964,123.459129 C55.3911474,122.149615 57.9156198,120.291317 61.2387755,120.990487 C63.2442797,121.412628 65.2418675,121.870826 67.2438533,122.310556" id="Stroke-113" stroke="#231815" stroke-width="2.51685393" stroke-linecap="round" stroke-linejoin="round"></path>
                        <path d="M112.547578,120.675201 C109.416177,119.964598 106.576805,118.637494 103.4542,119.974272 C101.570961,120.780736 99.7017959,121.621499 97.8255939,122.444673" id="Stroke-115" stroke="#231815" stroke-width="2.51685393" stroke-linecap="round" stroke-linejoin="round"></path>
                        <polyline id="Stroke-117" stroke="#231815" stroke-width="3.14606742" stroke-linecap="round" stroke-linejoin="round" points="51.1039423 139.441452 46.1200883 139.441452 35.927201 129.547537"></polyline>
                        <polyline id="Stroke-119" stroke="#231815" stroke-width="3.14606742" stroke-linecap="round" stroke-linejoin="round" points="121.497493 139.441452 126.481347 139.441452 134.103142 132.042562"></polyline>
                        <path d="M72.9291939,169.162686 C72.9291939,169.162686 76.6983105,175.125419 100.175025,167.691351" id="Stroke-121" stroke="#060000" stroke-width="2.51685393" stroke-linecap="round" stroke-linejoin="round"></path>
                        <path d="M113.556048,49.8504215 C95.492436,49.1063991 77.6109028,52.2689342 61.5721466,60.8146387 C45.44455,69.407834 32.913667,83.4774214 23.4174285,98.8494878 C18.9331914,106.108544 30.3487326,112.728233 34.8101,105.506994 C43.0441022,92.1796696 53.5369356,80.557617 67.2464921,72.7488993 C81.3184469,64.7335086 97.5718272,62.3844733 113.556048,63.0423087 C122.067126,63.3923334 122.033701,50.1995668 113.556048,49.8504215" id="Fill-123" fill="#CDCDCD" style="mix-blend-mode: multiply;"></path>
                        <path d="M80.7176752,21.7077289 C68.0812393,22.1615298 56.5750986,26.5438747 46.4569778,34.0430229 C36.5411668,41.3935424 28.4232727,50.6964612 19.7573833,59.4039862 C13.7523055,65.4388349 23.0814186,74.7681375 29.0882556,68.7324094 C43.8155177,53.9328709 58.0765879,35.7122363 80.7176752,34.8996161 C89.2006063,34.5953232 89.2305129,21.4025566 80.7176752,21.7077289" id="Fill-125" fill="#CDCDCD" style="mix-blend-mode: multiply;"></path>
                        <path d="M85.4078283,174.147021 C90.0442375,174.178681 94.7061552,174.60346 98.8323922,172.088207 C101.249553,170.614233 99.0408591,166.810573 96.6122638,168.290702 C93.2328133,170.351275 89.1954166,169.776109 85.4078283,169.749725 C82.5702158,169.730377 82.5728546,174.127673 85.4078283,174.147021" id="Fill-127" fill="#CDCECE" style="mix-blend-mode: multiply;"></path>
                        <path d="M114.640164,133.634384 C117.428518,136.988641 117.744297,141.132652 116.272714,145.127156 C115.291073,147.794555 119.543094,148.933455 120.51506,146.295957 C122.557507,140.74657 121.509895,135.048554 117.749575,130.525495 C115.935825,128.341798 112.841367,131.470914 114.640164,133.634384" id="Fill-135" fill="#CDCECE" style="mix-blend-mode: multiply;"></path>
                        <path d="M74.7141807,131.870276 C77.0917587,135.616772 77.8174346,139.563785 77.49198,143.952286 C77.2826335,146.783265 81.6815487,146.763038 81.8900156,143.952286 C82.2691262,138.847026 81.2698925,133.996809 78.510565,129.651401 C76.9967612,127.264549 73.1898215,129.468474 74.7141807,131.870276" id="Fill-137" fill="#CDCECE" style="mix-blend-mode: multiply;"></path>
                    </g>
                    <path d="M66.1954345,76.9139089 C66.1932016,76.9826801 66.1817686,77.1551314 66.1542136,77.4242747 C66.1057373,77.8977657 66.0273114,78.4541631 65.9120465,79.0865128 C65.5776031,80.9212884 65.0131982,82.9776163 64.1639361,85.2006444 C61.7193023,91.5997162 57.4736361,98.0162284 50.9739236,104.028072 C49.1160125,105.746528 47.0930419,107.410035 44.8982865,109.012537 C43.9869844,109.677925 43.8203706,110.913812 44.5261443,111.772967 C45.231918,112.632123 46.542817,112.789203 47.4541191,112.123815 C49.7772979,110.427544 51.9229519,108.663153 53.8971303,106.837157 C60.8583961,100.398405 65.4394666,93.4749934 68.0910762,86.5341417 C69.0254993,84.0881965 69.6510618,81.8090492 70.0258366,79.7530138 C70.2555759,78.4926511 70.3502468,77.5679554 70.3675734,77.0343124 C70.4028399,75.9481337 69.497464,75.0406587 68.3453597,75.0074102 C67.1932553,74.9741617 66.2307011,75.8277302 66.1954345,76.9139089 L66.1954345,76.9139089 Z" id="Shape" fill="#CDCDCD" style="mix-blend-mode: multiply;"></path>
                    <path d="M87.8541758,76.9139089 C87.852765,76.9826801 87.8455415,77.1551314 87.8281317,77.4242747 C87.7975036,77.8977657 87.7479528,78.4541631 87.6751265,79.0865128 C87.4638196,80.9212884 87.1072192,82.9776163 86.5706412,85.2006444 C85.0260809,91.5997162 82.3435981,98.0162284 78.2369714,104.028072 C77.0631122,105.746528 75.7849657,107.410035 74.3982826,109.012537 C73.8225067,109.677925 73.7172374,110.913812 74.163157,111.772967 C74.6090766,112.632123 75.4373244,112.789203 76.0131003,112.123815 C77.4809234,110.427544 78.8365833,108.663153 80.0839022,106.837157 C84.482146,100.398405 87.3765426,93.4749934 89.0518738,86.5341417 C89.6422579,84.0881965 90.0374987,81.8090492 90.2742877,79.7530138 C90.4194408,78.4926511 90.4792555,77.5679554 90.4902027,77.0343124 C90.5124847,75.9481337 89.9404531,75.0406587 89.2125343,75.0074102 C88.4846156,74.9741617 87.8764578,75.8277302 87.8541758,76.9139089 L87.8541758,76.9139089 Z" id="Shape-Copy" fill="#CDCDCD" style="mix-blend-mode: multiply;"></path>
                    <path d="M114.242389,62.8425626 C114.240979,62.9113338 114.233755,63.083785 114.216345,63.3529283 C114.185717,63.8264194 114.136166,64.3828168 114.06334,65.0151665 C113.852033,66.8499421 113.495433,68.90627 112.958855,71.1292981 C111.414294,77.5283699 108.731812,83.9448821 104.625185,89.9567252 C103.451326,91.6751812 102.173179,93.3386885 100.786496,94.9411908 C100.21072,95.6065787 100.105451,96.8424655 100.551371,97.7016212 C100.99729,98.5607768 101.825538,98.7178566 102.401314,98.0524687 C103.869137,96.3561979 105.224797,94.591807 106.472116,92.7658107 C110.87036,86.3270585 113.764756,79.4036471 115.440087,72.4627954 C116.030471,70.0168501 116.425712,67.7377029 116.662501,65.6816675 C116.807654,64.4213047 116.867469,63.4966091 116.878416,62.9629661 C116.900698,61.8767874 116.328667,60.9693124 115.600748,60.9360639 C114.872829,60.9028153 114.264671,61.7563839 114.242389,62.8425626 L114.242389,62.8425626 Z" id="Shape-Copy-2" fill="#CDCDCD" style="mix-blend-mode: multiply;" transform="translate(108.577129, 79.699835) rotate(-38.000000) translate(-108.577129, -79.699835) "></path>
                </g>
            </g>
        </g>
    </g>
</svg>