<?xml version="1.0" encoding="UTF-8" standalone="no"?>
<svg width="60px" height="54px" viewBox="0 0 60 54" version="1.1" xmlns="http://www.w3.org/2000/svg" xmlns:xlink="http://www.w3.org/1999/xlink" xmlns:sketch="http://www.bohemiancoding.com/sketch/ns">
    <!-- Generator: Sketch 3.5.1 (25234) - http://www.bohemiancoding.com/sketch -->
    <title>Shape</title>
    <desc>Created with Sketch.</desc>
    <defs></defs>
    <g id="Page-1" stroke="none" stroke-width="1" fill="none" fill-rule="evenodd" sketch:type="MSPage">
        <path d="M57.3192342,7.14496445 C54.1645638,4.71266787 49.4319868,5.63620905 48.1283992,5.95396208 L48.1283992,2.05577247 C48.1283992,1.14537575 47.3900235,0.407 46.4796268,0.407 L13.5333238,0.407 C12.622927,0.407 11.8845513,1.14537575 11.8845513,2.05577247 L11.8845513,5.95396208 C10.6329701,5.654497 5.84895819,4.72466933 2.70514627,7.13524898 C0.876351851,8.5382772 -0.0317588799,10.7111136 0.00710300161,13.5931793 C0.0459648831,16.4923899 1.00779645,18.8035289 2.86573728,20.4631598 C4.78711442,22.1793691 7.27541784,22.7965872 9.1562186,23.0023266 C8.56071742,23.9030078 7.74861839,24.7105349 6.7947878,24.7105349 C5.88439108,24.7105349 5.14658683,25.4489106 5.14658683,26.3593074 C5.14658683,27.2697041 5.88439108,28.0075083 6.7947878,28.0075083 C9.39739086,28.0075083 11.1210296,26.1164206 12.1405825,24.4367872 C13.1852813,30.7169816 17.4372283,35.9987685 23.4648205,38.3196229 L23.4648205,39.2700245 C22.8213134,39.6483563 22.2115248,40.081552 21.642884,40.564468 C20.9433702,41.1582547 20.3067211,41.8269077 19.7500818,42.553282 C18.8888339,43.6757045 18.2218955,44.9215707 17.7681258,46.2565907 C17.5475275,46.9075272 17.3777925,47.5773231 17.2657789,48.2448331 C17.1423352,48.9683499 17.0800419,49.6987247 17.0800419,50.417098 L17.0800419,51.4423659 C17.0800419,52.3527626 17.8184177,53.0911383 18.7288144,53.0911383 L41.2841361,53.0911383 C42.1945328,53.0911383 42.9323371,52.3527626 42.9323371,51.4423659 L42.9323371,50.417098 C42.9323371,49.6992962 42.8700438,48.9683499 42.7471717,48.2476906 C42.634015,47.5778946 42.4648515,46.9080987 42.2436817,46.2554477 C41.7881976,44.9181418 41.1212591,43.6722756 40.2611542,42.552139 C39.7010859,41.8234787 39.0644369,41.1548257 38.369495,40.5650395 C37.8008542,40.081552 37.1904941,39.6483563 36.5469871,39.2700245 L36.5469871,38.3196229 C42.5745792,35.99934 46.8259547,30.7181246 47.8717965,24.4390732 C48.8907779,26.1175636 50.6132737,28.0075083 53.2153052,28.0075083 C54.125702,28.0075083 54.8640777,27.2697041 54.8640777,26.3593074 C54.8640777,25.4489106 54.125702,24.7105349 53.2153052,24.7105349 C52.2620461,24.7105349 51.4499471,23.9024363 50.8550174,23.0023266 C52.7358182,22.7971587 55.2241216,22.1793691 57.1454987,20.4631598 C59.0040111,18.8035289 59.9664141,16.4923899 60.0047045,13.5937508 C60.0435664,10.7179716 59.1400277,8.54799267 57.3192342,7.14496445 L57.3192342,7.14496445 Z M5.06257658,18.0040028 C3.90586411,16.970734 3.33093687,15.5139849 3.30464795,13.5497454 C3.28064502,11.7426679 3.73898662,10.5019452 4.70710467,9.75671149 C6.57133198,8.32053637 10.0963332,8.87260368 11.2970511,9.20635866 C11.4947895,9.2612225 11.6925279,9.27322396 11.8851228,9.25665051 L11.8851228,19.7813624 C11.7839676,19.7727899 11.6816694,19.763646 11.5782282,19.7739329 C11.5382233,19.7779334 7.43315135,20.1214039 5.06257658,18.0040028 L5.06257658,18.0040028 Z M44.8314258,3.70454494 L44.8314258,7.94677651 L15.1820962,7.94677651 L15.1820962,3.70454494 L44.8314258,3.70454494 L44.8314258,3.70454494 Z M20.3987323,49.7935934 C20.4210207,49.4626959 20.4604541,49.1289409 20.5170325,48.7957574 C20.6004712,48.2985539 20.7267723,47.8013505 20.8907923,47.3178629 C21.0222369,46.9303871 21.1856854,46.5560558 21.3645644,46.1902969 L38.6489577,46.1902969 C38.8278366,46.5560558 38.9907136,46.9292441 39.1227297,47.3167199 C39.2873212,47.800779 39.4130508,48.2985539 39.4970611,48.7986149 C39.5536394,49.1300839 39.5925013,49.4626959 39.6153612,49.7935934 L20.3987323,49.7935934 L20.3987323,49.7935934 Z M34.4101551,35.5730023 C33.7203567,35.7873141 33.2505851,36.4251062 33.2505851,37.14748 L33.2505851,40.255859 C33.2505851,40.887936 33.6123435,41.4645778 34.1815558,41.7400399 C34.8279203,42.052078 35.428565,42.4469833 35.9886333,42.8927519 L24.0254603,42.8927519 C24.584957,42.4475548 25.1856017,42.052078 25.8319662,41.7394684 C26.4011785,41.4640063 26.7629369,40.887936 26.7629369,40.2552875 L26.7629369,37.1469085 C26.7629369,36.4245347 26.2925938,35.7867426 25.6033669,35.5724308 C19.3700355,33.6367662 15.1826677,27.9469295 15.1826677,21.4135614 L15.1826677,11.2443214 L44.8319973,11.2443214 L44.8319973,21.4141329 C44.8314258,27.947501 40.6434866,33.6373377 34.4101551,35.5730023 L34.4101551,35.5730023 Z M54.9595179,17.9948589 C52.5752272,20.1362628 48.4707267,19.7779334 48.4347223,19.7733614 C48.3312811,19.7630745 48.2295544,19.7722184 48.1283992,19.7807909 L48.1283992,9.25665051 C48.3198512,9.27322396 48.5170181,9.261794 48.713042,9.20693016 C49.9143313,8.87260368 53.4427615,8.32053637 55.3058459,9.75671149 C56.2733924,10.5019452 56.731734,11.7426679 56.7071596,13.5491739 C56.6814422,15.5082699 56.1099439,16.9621615 54.9595179,17.9948589 L54.9595179,17.9948589 Z" id="Shape" fill="#5ECC96" sketch:type="MSShapeGroup"></path>
    </g>
</svg>