<?xml version="1.0" encoding="UTF-8" standalone="no"?>
<svg width="1280px" height="361px" viewBox="0 0 1280 361" version="1.1" xmlns="http://www.w3.org/2000/svg" xmlns:xlink="http://www.w3.org/1999/xlink" xmlns:sketch="http://www.bohemiancoding.com/sketch/ns">
    <!-- Generator: Sketch 3.5.2 (25235) - http://www.bohemiancoding.com/sketch -->
    <title>dot_bg_2</title>
    <desc>Created with Sketch.</desc>
    <defs>
        <path id="path-1" d="M12.3,11.7 C17.2875,11.7 23.7,8.34545794 23.7,3.94555104 C23.7,-0.454355852 18.35625,1.20791448 12.3,1.20791448 C6.24375,1.20791448 0.9,-0.454355861 0.9,3.9455509 C0.9,8.34545767 7.3125,11.7 12.3,11.7 Z"></path>
    </defs>
    <g id="Page-1" stroke="none" stroke-width="1" fill="none" fill-rule="evenodd" sketch:type="MSPage">
        <g id="website" sketch:type="MSArtboardGroup" transform="translate(-40.000000, -4162.000000)">
            <g id="dot_bg_2" sketch:type="MSLayerGroup" transform="translate(40.000000, 4162.000000)">
                <g id="logo" transform="translate(1159.026472, 325.146983) rotate(-349.000000) translate(-1159.026472, -325.146983) translate(1106.526472, 295.146983)">
                    <g id="Rectangle-13-+-Oval-59-+-Oval-59-+-Oval-59-+-Oval-59-Copy-+-Group" transform="translate(26.000000, 0.000000)">
                        <rect id="Rectangle-13" fill="#00D598" sketch:type="MSShapeGroup" x="-4.54747351e-12" y="8.81072992e-13" width="60" height="60" rx="4"></rect>
                        <g id="Oval-59-+-Oval-59-+-Oval-59-+-Oval-59-Copy-+-Group" transform="translate(14.000000, 19.000000)">
                            <g id="Oval-59-+-Oval-59-+-Oval-59-+-Oval-59-Copy" transform="translate(0.500000, 0.500000)" sketch:type="MSShapeGroup">
                                <g id="Oval-59-+-Oval-59">
                                    <circle id="Oval-59" fill="#FFFFFF" cx="4.5" cy="4.5" r="4.5"></circle>
                                    <circle id="Oval-59" fill="#444444" cx="4.5" cy="4.5" r="2.7"></circle>
                                </g>
                                <g id="Oval-59-+-Oval-59-Copy" transform="translate(22.000000, 0.000000)">
                                    <circle id="Oval-59" fill="#FFFFFF" cx="4.5" cy="4.5" r="4.5"></circle>
                                    <circle id="Oval-59" fill="#444444" cx="4.5" cy="4.5" r="2.7"></circle>
                                </g>
                            </g>
                            <g id="Group" transform="translate(4.000000, 11.500000)">
                                <mask id="mask-2" sketch:name="Mask" fill="white">
                                    <use xlink:href="#path-1"></use>
                                </mask>
                                <use id="Mask" fill="#444444" sketch:type="MSShapeGroup" xlink:href="#path-1"></use>
                                <g id="Rectangle-76-+-Rectangle-76-Copy-+-Rectangle-76-Copy-2" mask="url(#mask-2)" fill="#FFFFFF" sketch:type="MSShapeGroup">
                                    <g transform="translate(4.500000, -3.000000)">
                                        <rect id="Rectangle-76" x="0" y="0.374262397" width="5" height="5.6257376" rx="120"></rect>
                                        <rect id="Rectangle-76-Copy" x="5" y="0.374262397" width="5" height="5.6257376" rx="120"></rect>
                                        <rect id="Rectangle-76-Copy-2" x="10" y="0.374262397" width="5" height="5.6257376" rx="120"></rect>
                                    </g>
                                </g>
                                <g id="Rectangle-76-Copy-3-+-Rectangle-76-Copy-4" mask="url(#mask-2)" fill="#FFFFFF" sketch:type="MSShapeGroup">
                                    <g transform="translate(7.500000, 9.750000)">
                                        <rect id="Rectangle-76-Copy-3" x="0" y="0" width="4.5" height="8.1" rx="120"></rect>
                                        <rect id="Rectangle-76-Copy-4" x="4.5" y="0" width="4.5" height="8.1" rx="120"></rect>
                                    </g>
                                </g>
                            </g>
                        </g>
                    </g>
                    <g id="Shape-+-Oval-65" transform="translate(-0.000000, 15.000000)" fill="#00D598" sketch:type="MSShapeGroup">
                        <path d="M25.4213432,11.8315841 C25.2576238,11.8575791 24.9318784,11.8996966 24.475473,11.9427277 C22.4236687,12.1361773 20.2084427,12.1145305 18.1635539,11.7362135 C13.9463355,10.9560024 11.6247872,8.93027947 11.6247872,5.0999767 C11.6247872,4.27154958 10.9532143,3.59997671 10.1247872,3.59997671 C9.29636005,3.59997672 8.62478718,4.2715496 8.62478719,5.09997673 C8.62478724,10.6139325 12.1276551,13.6704444 17.6177969,14.6861541 C19.9767681,15.1225782 22.4524299,15.1467699 24.7570721,14.9294822 C25.2797321,14.8802044 25.6679226,14.830013 25.8917838,14.7944688 C26.7099619,14.6645602 27.2679145,13.8959841 27.1380059,13.0778061 C27.0080973,12.2596281 26.2395212,11.7016755 25.4213432,11.8315841 L25.4213432,11.8315841 Z" id="Shape"></path>
                        <path d="M6.23125678,7.74914938 C9.17490157,7.74914938 11.5611972,6.42884187 11.5611972,3.48519708 C11.5611972,0.541552293 8.10906429,1.68938617 6.23125678,1.68938617 C4.35344928,1.68938617 0.901316406,0.541552293 0.901316406,3.48519708 C0.901316406,6.42884187 3.287612,7.74914938 6.23125678,7.74914938 Z" id="Oval-65" transform="translate(6.231257, 4.609084) rotate(-346.000000) translate(-6.231257, -4.609084) "></path>
                    </g>
                    <g id="Shape-+-Oval-65-Copy" transform="translate(88.583286, 35.056740) scale(-1, -1) rotate(-314.000000) translate(-88.583286, -35.056740) translate(74.583286, 27.056740)" fill="#00D598" sketch:type="MSShapeGroup">
                        <path d="M25.4213432,11.8315841 C25.2576238,11.8575791 24.9318784,11.8996966 24.475473,11.9427277 C22.4236687,12.1361773 20.2084427,12.1145305 18.1635539,11.7362135 C13.9463355,10.9560024 11.6247872,8.93027947 11.6247872,5.0999767 C11.6247872,4.27154958 10.9532143,3.59997671 10.1247872,3.59997671 C9.29636005,3.59997672 8.62478718,4.2715496 8.62478719,5.09997673 C8.62478724,10.6139325 12.1276551,13.6704444 17.6177969,14.6861541 C19.9767681,15.1225782 22.4524299,15.1467699 24.7570721,14.9294822 C25.2797321,14.8802044 25.6679226,14.830013 25.8917838,14.7944688 C26.7099619,14.6645602 27.2679145,13.8959841 27.1380059,13.0778061 C27.0080973,12.2596281 26.2395212,11.7016755 25.4213432,11.8315841 L25.4213432,11.8315841 Z" id="Shape"></path>
                        <path d="M6.23125678,7.74914938 C9.17490157,7.74914938 11.5611972,6.42884187 11.5611972,3.48519708 C11.5611972,0.541552293 8.10906429,1.68938617 6.23125678,1.68938617 C4.35344928,1.68938617 0.901316406,0.541552293 0.901316406,3.48519708 C0.901316406,6.42884187 3.287612,7.74914938 6.23125678,7.74914938 Z" id="Oval-65" transform="translate(6.231257, 4.609084) rotate(-346.000000) translate(-6.231257, -4.609084) "></path>
                    </g>
                </g>
                <path d="M29.5832166,4.26325641e-13 C10.8928334,28.0589867 1.13686838e-13,61.7574146 1.13686838e-13,98 C1.13686838e-13,195.754401 79.2455993,275 177,275 C274.754401,275 354,195.754401 354,98 C354,61.7574146 343.107167,28.0589867 324.416783,-2.27373675e-12 L272.73409,4.12114787e-13 C298.195021,24.8758648 314,59.5922071 314,98 C314,173.663011 252.663011,235 177,235 C101.336989,235 40,173.663011 40,98 C40,59.5922071 55.8049789,24.8758648 81.2659098,3.96127575e-13 L29.5832166,4.12114787e-13 Z" id="Shape" opacity="0.662954757" fill="#FFFFFF" sketch:type="MSShapeGroup"></path>
                <ellipse id="dot" fill="#00D598" sketch:type="MSShapeGroup" transform="translate(216.416822, 275.299401) scale(-1, 1) translate(-216.416822, -275.299401) " cx="216.416822" cy="275.299401" rx="15.4168224" ry="15.2994014"></ellipse>
                <path d="M1273.8273,173.565146 C1274.32404,173.565146 1274.52021,173.219782 1274.26829,172.798492 L1258.37206,146.214437 C1258.11888,145.791025 1257.70712,145.793146 1257.45521,146.214437 L1241.55898,172.798492 C1241.3058,173.221903 1241.50161,173.565146 1241.99997,173.565146 L1273.8273,173.565146 Z" id="dot_3" fill="#4387FB" sketch:type="MSShapeGroup" transform="translate(1257.913635, 159.506464) rotate(-39.000000) translate(-1257.913635, -159.506464) "></path>
                <rect id="dot_2" fill="#F46552" sketch:type="MSShapeGroup" transform="translate(462.923251, 68.000000) scale(-1, 1) translate(-462.923251, -68.000000) " x="454.643842" y="59.7836504" width="16.5588182" height="16.4326992" rx="0.896"></rect>
            </g>
        </g>
    </g>
</svg>