<?xml version="1.0" encoding="UTF-8" standalone="no"?>
<svg width="125px" height="125px" viewBox="0 0 125 125" version="1.1" xmlns="http://www.w3.org/2000/svg" xmlns:xlink="http://www.w3.org/1999/xlink" xmlns:sketch="http://www.bohemiancoding.com/sketch/ns">
    <!-- Generator: Sketch Beta 3.3.2 (12041) - http://www.bohemiancoding.com/sketch -->
    <title>Rectangle 12</title>
    <desc>Created with Sketch Beta.</desc>
    <defs></defs>
    <g id="Page-1" stroke="none" stroke-width="1" fill="none" fill-rule="evenodd" sketch:type="MSPage">
        <g id="Desktop-HD" sketch:type="MSArtboardGroup" transform="translate(-178.000000, -1171.000000)" fill="#FFFFFF">
            <g id="works" sketch:type="MSLayerGroup" transform="translate(0.000000, 1018.000000)">
                <g id="NEXT" sketch:type="MSShapeGroup">
                    <path d="M237.025,234 L243.5,234 L247.7,227.762376 C249.740934,224.742857 251.148745,222.634286 251.2,222.594059 C251.299582,222.634286 252.657113,224.742857 254.7,227.762376 L258.725,234 L269.4,234 L256.625,215.465347 L263.25,206.019802 L269.75,206.019802 L269.75,234 L278.15,234 L278.15,206.019802 L289,206.019802 L289,198 L263.8875,198 L263.8875,198 L258.9,198 L255.05,203.881188 C253.411297,206.588571 251.902929,209.005714 251.725,209.049505 C251.701813,209.005714 250.092887,206.64 248.225,203.881188 L244.2,198 L237.2,198 L214.8,198 L214.8,204.237624 L214.8,210.475248 C214.721003,214.405714 214.771473,219.034286 214.8,219.029703 L214.625,219.029703 L199.575,198 L191,198 L191,234 L199.4,234 L199.4,221.70297 C199.478997,216.977143 199.378056,212.554286 199.4,212.435644 L199.575,212.435644 L214.625,234 L219,234 L237.025,234 Z M239.029087,225.980198 L246.475,215.465347 L239.660714,206.019802 L223.2,206.019802 L223.2,212.257426 L235.975,212.257426 L235.975,219.386139 L223.2,219.386139 L223.2,225.980198 L239.029087,225.980198 Z"></path>
                </g>
            </g>
        </g>
    </g>
</svg>