<?xml version="1.0" encoding="utf-8"?>
<!-- Generator: Adobe Illustrator 19.1.0, SVG Export Plug-In . SVG Version: 6.00 Build 0)  -->
<svg version="1.1" xmlns="http://www.w3.org/2000/svg" xmlns:xlink="http://www.w3.org/1999/xlink" x="0px" y="0px"
	 viewBox="-105 -13 400 819" style="enable-background:new -105 -13 400 819;" xml:space="preserve">
<style type="text/css">
	.st0{fill:none;}
	.st1{fill:none;stroke:#FFFFFF;}
	.st2{fill:none;stroke:#FFFFFF;stroke-linecap:square;}
	.st3{fill:none;stroke:#FFFFFF;stroke-linecap:square;stroke-miterlimit:10;}
</style>
<g id="Layer_1" xmlns:sketch="http://www.bohemiancoding.com/sketch/ns">
	<title>Phone + Img Copy 11</title>
	<desc>Created with Sketch.</desc>
	<rect id="path-1" x="-79.9" y="85.1" class="st0" width="349.5" height="622"/>
	<rect id="path-1_1_" x="-79.9" y="85.1" class="st0" width="349.5" height="622"/>
	<path id="Shape_1_" sketch:type="MSShapeGroup" class="st1" d="M-48.3-12.7H238c30.9,0,56,25.1,56,56v706.3c0,30.9-25.1,56-56,56
		H-48.3c-30.9,0-56-25.1-56-56V43.3C-104.4,12.4-79.3-12.7-48.3-12.7z"/>
	<path id="Oval" sketch:type="MSShapeGroup" class="st2" d="M93.8,729.5L93.8,729.5c14.9,0,26.9,12,26.9,26.9v0
		c0,14.9-12,26.9-26.9,26.9l0,0c-14.9,0-26.9-12-26.9-26.9v0C66.9,741.6,78.9,729.5,93.8,729.5z"/>
	<path id="Oval_1_" sketch:type="MSShapeGroup" class="st2" d="M49.4,34.8L49.4,34.8c2.3,0,4.2,1.9,4.2,4.2l0,0
		c0,2.3-1.9,4.2-4.2,4.2l0,0c-2.3,0-4.2-1.9-4.2-4.2l0,0C45.2,36.7,47.1,34.8,49.4,34.8z"/>
</g>
<g id="Layer_3">
	<path class="st3" d="M66.5,39c0-2.3,1.9-4.2,4.2-4.2h75.5c2.3,0,4.2,1.9,4.2,4.2c0,2.3-1.9,4.2-4.2,4.2H70.7
		C68.4,43.2,66.5,41.3,66.5,39z"/>
	<rect x="-549.1" y="-1951.8" class="st0" width="1500" height="3855"/>
</g>
</svg>
